<?xml version="1.0" encoding="UTF-8"?>
<svg id="Layer_2" data-name="Layer 2" xmlns="http://www.w3.org/2000/svg" xmlns:xlink="http://www.w3.org/1999/xlink" viewBox="0 0 120 120">
  <defs>
    <style>
      .cls-1 {
        fill: none;
      }

      .cls-2 {
        clip-path: url(#clippath);
      }

      .cls-3 {
        fill: #f3eec7;
      }

      .cls-4 {
        fill: #f2eab2;
      }

      .cls-5 {
        fill: #f2e09c;
      }

      .cls-6 {
        fill: #695026;
      }

      .cls-7 {
        fill: #ecd491;
      }

      .cls-8 {
        fill: #e9ce77;
      }

      .cls-9 {
        fill: #e4ca7a;
      }

      .cls-10 {
        fill: #e4c166;
      }

      .cls-11 {
        fill: #e4c46a;
      }

      .cls-12 {
        fill: #e9c86f;
      }

      .cls-13 {
        fill: #ebcc73;
      }

      .cls-14 {
        fill: #fff;
      }

      .cls-15 {
        fill: #ffd711;
      }

      .cls-16 {
        fill: #f0d688;
      }

      .cls-17 {
        fill: #e5bb60;
      }

      .cls-18 {
        fill: #e5da9b;
      }

      .cls-19 {
        fill: #e5cb7c;
      }

      .cls-20 {
        fill: #e5d79a;
      }

      .cls-21 {
        fill: #806130;
      }

      .cls-22 {
        fill: #b5923d;
      }

      .cls-23 {
        fill: #8b6228;
      }

      .cls-24 {
        fill: #9d8d56;
      }

      .cls-25 {
        fill: #a17c32;
      }

      .cls-26 {
        fill: #c29b3a;
      }

      .cls-27 {
        fill: #917d49;
      }

      .cls-28 {
        fill: #917239;
      }

      .cls-29 {
        fill: #c1b278;
      }

      .cls-30 {
        fill: #b49443;
      }

      .cls-31 {
        fill: #cdae50;
      }

      .cls-32 {
        fill: #ceb66c;
      }

      .cls-33 {
        fill: #a68e32;
      }

      .cls-34 {
        fill: #ab904b;
      }

      .cls-35 {
        fill: #b08d3d;
      }

      .cls-36 {
        fill: #a57a2d;
      }

      .cls-37 {
        fill: #b38533;
      }

      .cls-38 {
        fill: #c09435;
      }

      .cls-39 {
        fill: #c1a34c;
      }

      .cls-40 {
        fill: #c19737;
      }

      .cls-41 {
        fill: #be9838;
      }

      .cls-42 {
        fill: #d7c072;
      }

      .cls-43 {
        fill: #d7b55a;
      }

      .cls-44 {
        fill: #bd9a41;
      }

      .cls-45 {
        fill: #ccad4e;
      }

      .cls-46 {
        fill: #caae58;
      }

      .cls-47 {
        fill: #caa84a;
      }

      .cls-48 {
        fill: #debf67;
      }

      .cls-49 {
        fill: #ddc576;
      }

      .cls-50 {
        fill: #c9a03e;
      }

      .cls-51 {
        fill: #ddc170;
      }

      .cls-52 {
        fill: #cbab5a;
      }

      .cls-53 {
        fill: #cba747;
      }

      .cls-54 {
        fill: #cba748;
      }

      .cls-55 {
        fill: #cbb260;
      }

      .cls-56 {
        fill: #d2a73c;
      }

      .cls-57 {
        fill: #d2b158;
      }

      .cls-58 {
        fill: #d2ad4d;
      }

      .cls-59 {
        fill: #d1c180;
      }

      .cls-60 {
        fill: #c79c3d;
      }

      .cls-61 {
        fill: #e2c476;
      }

      .cls-62 {
        fill: #e2c370;
      }

      .cls-63 {
        fill: #c4a759;
      }

      .cls-64 {
        fill: #d6bb6b;
      }

      .cls-65 {
        fill: #d4b356;
      }

      .cls-66 {
        fill: #d3c28a;
      }

      .cls-67 {
        fill: #dfcc80;
      }

      .cls-68 {
        fill: #ac8031;
      }

      .cls-69 {
        fill: #d3b868;
      }

      .cls-70 {
        fill: #c69b3a;
      }

      .cls-71 {
        fill: #dec47b;
      }

      .cls-72 {
        fill: #dbb959;
      }

      .cls-73 {
        fill: #e2cc84;
      }

      .cls-74 {
        fill: #e1d49d;
      }

      .cls-75 {
        fill: #e1c77e;
      }

      .cls-76 {
        fill: #e1c070;
      }

      .cls-77 {
        fill: #252213;
      }

      .cls-78 {
        fill: #453a25;
      }

      .cls-79 {
        fill: #6e6342;
      }

      .cls-80 {
        fill: #543f27;
      }

      .cls-81 {
        fill: #70684e;
      }

      .cls-82, .cls-83 {
        fill: #82764f;
      }

      .cls-84 {
        fill: #595137;
      }

      .cls-85 {
        fill: #2d2817;
      }

      .cls-86 {
        fill: #353121;
      }

      .cls-87 {
        fill: #39331f;
      }

      .cls-88 {
        fill: #585036;
      }

      .cls-89 {
        fill: #83754c;
      }

      .cls-83 {
        isolation: isolate;
        opacity: .7;
      }
    </style>
    <clipPath id="clippath">
      <rect class="cls-1" width="120" height="120"/>
    </clipPath>
  </defs>
  <g id="Layer_1-2" data-name="Layer 1">
    <g class="cls-2">
      <g>
        <path class="cls-15" d="M120,60c-.36,21.1-2.64,38.09-12.46,47.54-9.45,9.82-26.44,12.1-47.54,12.46-21.1-.36-38.09-2.64-47.54-12.46C2.64,98.09,.37,81.09,0,60,.37,38.9,2.64,21.91,12.46,12.46,21.91,2.64,38.9,.37,60,0c21.1,.37,38.09,2.64,47.54,12.46,9.82,9.45,12.1,26.44,12.46,47.54h0Z"/>
        <path class="cls-33" d="M82.4,28.99c.42,3.27,2.02,6.74,6.09,7.46,4.06,.72,7.25,3.68,8.83,7.04,1.58,3.36,1.6,5.91,2.91,10.33,1.31,4.42,.56,9.03,.56,9.03l-6.43,2.57-13.51,1.12-3.26-4.7-.76-8.56v-8.37l5.58-15.92h0Z"/>
        <path class="cls-13" d="M99.81,62.24s1.29-3.2,.9-4.9c-.39-1.7-1.34-2.08-1.72-4.59-.38-2.51-2.07-11.67-8.21-14-6.14-2.33-7.21,22.63-7.21,22.63l16.24,.86Z"/>
        <path class="cls-10" d="M81.9,34.22s2.52,1.11,4.53,2.08c2.01,.97,5.66,2.16,5.66,2.16,0,0-.03,.73-.52,.93,0,0,2.5,2.86,1.63,6.26,0,0-.78-.3-1-.21s.05,.36-.22,.5c-.27,.15-1.35-1.08-1.35-1.08,0,0,.51,3.84-1.54,5.27l-7.2-15.9h0Z"/>
        <path class="cls-25" d="M27.79,41.08c-1.73-6.69-1.57-20.89,4.01-21.6,8.42-2.49,2.01,14.22-1.08,21.8-.56,1.38-2.56,1.25-2.94-.2Z"/>
        <path class="cls-3" d="M92.04,57.18c.16-.64,.13-1.24,0-1.83-.07-.29-.16-.58-.27-.86-.14-.33-.31-.7-.48-1.08-.15-.26-.28-.53-.39-.82-.11-.28-.19-.58-.25-.88-.35-1.35,.03-3.49,1.67-3.99,.37,.06,.72,.22,1.05,.44s.64,.51,.94,.85c.27,.27,.54,.57,.82,.86,.83,.89,1.68,1.8,2.59,2.12,.37,.25,.25,.88,.66,1.25,.21,.39,.42,.77,.63,1.15,3.94,7.22,7.05,13.12,3.77,24.77l-10.72-21.99h0Z"/>
        <path class="cls-33" d="M101.55,63.79c-.08-.55-.14-1.1-.19-1.67-.05-.57-.08-1.14-.1-1.71-.02-.57-.03-1.14-.06-1.7-.03-1.25-.99-1.51-2.06-1.72-.36-.07-.72-.14-1.07-.24-.31-.26-.63-.54-.95-.83-1.48-.91-2.75-2-3.78-3.26-.26-.31-.5-.64-.72-.98-.2-.44-.45-.94-.71-1.32-.88-3.02-2.01-6.03-4.4-8.42-.25-.25-.25-1-.05-1.57,.07-.26,.17-.52,.29-.75,.1-.5,.18-.99,.22-1.38,.03-.39,.02-.68-.08-.76-.41-.34-.82-.68-1.22-1.03-.46-.4-.9-.82-1.33-1.25-.41-.64-.74-1.31-1-2-.27-.69-.48-1.4-.64-2.12-1.59-4.52,.86-13.25-1.22-14.5-3.46-2.07-6.5,5.7-9.49,7.77-.36,.34-.72,.68-1.09,1.02-.42,.39-.85,.79-1.3,1.17-.48,.33-.97,.63-1.48,.9-.54,.24-1.08,.45-1.63,.64-.55,.19-1.1,.35-1.66,.49-6.49,1.29-13.18-.17-19.67,1.12-.49-.11-.98-.19-1.46-.23-1.45-.13-2.88,.02-4.28,.39-.62,.16-1.23,.37-1.84,.6-.51,.27-1.02,.54-1.53,.82-.5,.28-1,.56-1.49,.84-2.08,1.35-4.21,2.85-6.09,4.57-.47,.43-.93,.88-1.36,1.35-1.09,1.02-1.83,2.26-2.39,3.59-.19,.44-.35,.9-.5,1.36-.74,2.2-.86,4.35-1.44,6.39-.12,.41-.25,.81-.4,1.21-.84,4.49-1.53,8.84-3.14,13.11-.23,.61-.48,1.22-.74,1.84-1.66,4.67-1.09,9.81-2.62,14.37-.1,.55-.2,1.11-.31,1.66-.08,.41-.17,.83-.25,1.24-.09,.41-.18,.82-.27,1.23-.14,.48-.26,.96-.36,1.45-.1,.49-.18,.98-.25,1.48-.26,1.95-.46,4.15-1.03,6.16,4.4,.74,8.03-1.65,11.42-3.87,.61-.32,1.22-.63,1.83-.94,.61-.31,1.23-.6,1.85-.87,.96-.55,2.1-.55,3.07-.92,.54-.17,1.08-.34,1.6-.53,1.6-.55,3.16-1.17,4.7-1.85,1.03-.46,2.04-.94,3.04-1.45,1.73-.56,3.45-1.11,5.26-1.7,.63-.21,1.27-.41,1.91-.61,.69-.22,1.38-.45,2.08-.67,.7-.22,1.39-.45,2.09-.67,.52-.14,1.04-.29,1.56-.44,.66-.22,1.32-.43,1.98-.66,5.06-2.38,9.62-5.08,14.87-6.53,.66-.18,1.32-.34,2-.48,2.45-.36,4.93-1.46,7.42-1.64,2.68-.18,5.35-.18,7.76-.95,.51-.15,1.01-.3,1.51-.47,.99-.32,1.97-.67,2.88-.98,.59-.21,1.17-.41,1.76-.61,.59-.19,1.19-.37,1.81-.54,.7-.26,1.41-.54,2.1-.84,.7-.3,1.39-.61,2.08-.94,.32-.12,.49-.19,.49-.19h0Z"/>
        <path class="cls-67" d="M72.93,119.45c-4.1,.31-8.42,.48-12.93,.55-1.6-.03-3.18-.07-4.72-.12-.62-.02-1.24-.04-1.85-.07-.61-.02-1.21-.05-1.81-.08-3.6-.18-7.05-.44-10.32-.83-6.36-.74-12.08-1.94-17.01-3.85-1.31-.5-2.57-1.06-3.76-1.66-.25-.12-.49-.25-.74-.38,0,.04,0,.08,0,.12,0-.04,0-.09-.02-.14-.16-.09-.32-.18-.48-.26,0-.31,0-.62,0-.93,0-.55,.01-1.1,.02-1.64,0-.47-.02-.93-.02-1.38,.03-.7,.02-1.4,0-2.09-.02-.42-.04-.84-.04-1.27-.02-1.45,.08-2.98,.52-4.39,2.87,1.28,6.12-.92,9.19-.68,.49,0,.99,.02,1.49,.07,.27,.02,.55,.06,.82,.1,.23,.03,.45,.06,.68,.1,.4,.09,.79,.19,1.18,.3,.02,0,.05,.02,.07,.02,.23,.07,.46,.14,.7,.21,.07,.02,.14,.04,.21,.07,.32,.1,.63,.2,.94,.31,.36,.12,.71,.24,1.06,.36,.12,.04,.25,.08,.38,.12,.58,.2,1.16,.38,1.75,.57,.49,.15,.98,.29,1.48,.42h.14c.36,0,.72,.01,1.08,.03,.62,.02,1.26,.04,1.89,.07h.02c.51,.03,1.02,.06,1.54,.1,.67,.1,1.34,.2,2,.31,.67,.11,1.34,.22,2.01,.33,4.42,.86,9.2,.68,13.59,2.03,.52,.28,1.04,.62,1.49,.95,.45,.34,.87,.7,1.28,1.1,1.1,1.06,2.09,2.27,3.03,3.51,.2,.26,.39,.52,.58,.78,.58,.78,1.15,1.57,1.72,2.3,.06,.13,.12,.26,.18,.39,.11,.24,.22,.47,.33,.7,.1,.2,.19,.39,.29,.58,.1,.18,.19,.37,.29,.55,.16,.3,.34,.6,.51,.89,.12,.2,.24,.39,.37,.58,.26,.43,.55,.85,.84,1.26h.02Z"/>
        <path class="cls-16" d="M83.27,118.26h-.03s0-.02,0-.04c.02-.08,.04-.16,.07-.24,.02-.06,.03-.11,.05-.16,.1-.32,.22-.64,.34-.95,0-.01,0-.02,.02-.04,.22-.54,.48-1.06,.79-1.55,.59-.95,1.34-1.79,2.19-2.51,.42-.35,.88-.69,1.35-.98,3.22-2.33,7.43-1.6,10.99-2.18,.45-.04,.91-.03,1.34,.02,1.24,.16,2.28,.73,2.37,1.86-4.42,2.92-9.87,4.86-16.13,6.16-.69,.14-1.38,.27-2.09,.39-.37,.07-.74,.13-1.1,.19-.05,0-.1,.02-.15,.02h0Z"/>
        <path class="cls-9" d="M103.98,110.63c-.4,.3-.82,.58-1.24,.86-4.42,2.92-9.87,4.86-16.13,6.15-.69,.14-1.38,.27-2.09,.39-.37,.07-.74,.14-1.1,.19-.05,0-.1,.02-.15,.02h-.03c-.35,.06-.71,.12-1.07,.17-1.22,.19-2.46,.35-3.73,.5-.07-.27-.14-.55-.22-.82-.3-1.15-.52-2.27,.24-3.16,.38-.57,.74-1.14,1.07-1.7,.23-.35,.46-.7,.67-1.06,.31-.5,.61-1,.88-1.51,.3-.53,.57-1.07,.82-1.62,.07-.16,.14-.33,.22-.5,.14-.32,.26-.63,.38-.96,.78-1.52,.84-3.21,.92-4.91,0-.04,0-.08,0-.11,.04-.72,.09-1.43,.2-2.12,.04-.38,.12-.76,.23-1.12h0c.04-.17,.09-.32,.14-.47,.58-1.64,1.71-3.09,3.12-4.23,0,0,0,0,.01,0,.8-.66,1.7-1.21,2.63-1.64,.47-.28,.95-.55,1.44-.8,.11-.06,.22-.12,.33-.18,.24-.12,.49-.24,.73-.36,0,0,0,0,.01,0,.6-.29,1.21-.56,1.82-.83,.61-.26,1.22-.51,1.83-.76,.03-.01,.07-.02,.1-.04,.38-.15,.75-.3,1.12-.45,.3-.24,.6-.48,.9-.72l.4-.32c.14-.14,.27-.28,.38-.39,.41-.42,.63-.66,.63-.66,.12,1.08,.44-1.03,.48-.01h0c0,.18,.11,.57,.25,1.05,.3,1.07,.78,2.56,.81,2.93,.06,.54,.39,2.19,.48,3.16,.04,.48,.1,.98,.16,1.48,.18,2.34,1.38,4.23,.89,6.53-.12,.54,.43,1.02,.61,1.54,.37,1.04,.65,2.12,.77,3.28,.03,.49,.06,.98,.08,1.46-.04,.48-.03,1.07,0,1.74h0Z"/>
        <path class="cls-42" d="M86.61,117.65c-.69,.14-1.38,.27-2.09,.39-.37,.07-.74,.13-1.1,.19-.05,0-.1,.02-.15,.02h-.03c-.35,.06-.71,.12-1.07,.17-.02-.18-.02-.36,.01-.52,.06-.26,.2-.5,.42-.68,.12-.11,.28-.2,.46-.26,.08-.01,.16-.03,.24-.05,.14-.03,.28-.06,.42-.09,.79-.16,1.65-.26,2.39,.32,.19,.14,.36,.31,.5,.49h0Z"/>
        <path class="cls-42" d="M82.17,118.43c-1.22,.19-2.46,.35-3.73,.5-.54,.06-1.1,.12-1.65,.18-.03,0-.06,0-.1,0h-.01s0,.01,0,0c-.73,.07-1.47,.14-2.21,.2-.5,.05-1.02,.09-1.53,.12-4.1,.31-8.42,.48-12.93,.55-1.6-.03-3.18-.07-4.72-.12-1.49-1.35-3.15-2.92-3.23-3.18-.87-1.03,.5,1.27,1.38,3.1-.61-.02-1.21-.05-1.81-.08-2.46-2.48-6.33-6.47-6.6-6.6-2.3-1.1,2.75,4.69,.26,3.59-.58-.37-7.72-8.91-8.1-9.64-.38-.36-.96-.92-1.72-.92,0,.37,.99,1.48,1.84,2.96,.78,1.58,.74,2.1,.36,1.8-.36-.46-4.85-6.29-5.26-6.69-.82-.94-1.11-1.39-2.23-1.73-.56-.17-1.14-.26-1.73-.29-.22,.01-.43,.03-.64,.06-1.51,.22-2.85,.86-4.2,1.5-.19,0-.58-.36-.77-.36-1.14,.74,.38,2.93-1.33,2.75,.19,.46,.62,.83,.98,1.19,.36,.37,.65,.73,.55,1.19,0,.37-.96,0-1.53,.18,.38,.27,.72,.64,.99,1.04,.27,.4,.49,.84,.63,1.27,.38,1.31,.66,2.72,1.15,4.01-1.31-.5-2.57-1.05-3.76-1.66-.25-.12-.49-.25-.74-.38,0,.04,0,.08,0,.12,0-.04,0-.09-.02-.14-.16-.09-.32-.18-.48-.26-.53-.29-1.05-.6-1.55-.92-.3-.19-.61-.39-.9-.6-1.04-1.13-1.82-1.98-1.82-1.98,0,0-.02-.88-.05-2.21-.01-.66-.02-1.43-.04-2.26-.05-.41-.08-.82-.08-1.22-.33-1.91-.26-3.57,.12-5.01,.32-1.22,.86-2.26,1.58-3.13,1.19-1.47,2.85-2.47,4.73-3.04,.72-.22,1.46-.37,2.23-.46h.05c.52-.06,1.05-.1,1.58-.1,.12,.01,.44,.18,.86,.45,.19,.12,.41,.26,.64,.41,1.3,.86,3.09,2.12,4.16,2.8,.06,.04,.12,.08,.17,.11,.34,.21,.59,.34,.69,.36,.6,.09,1.19,.17,1.77,.25,.07,0,.14,.02,.21,.03,.06,0,.12,.02,.18,.02h.03c.42,.06,.84,.12,1.26,.18h.02c.98,.14,1.96,.29,2.94,.45,.71,.11,1.42,.22,2.14,.34,.4,.06,.8,.11,1.2,.17,.14,.02,.29,.04,.43,.06,.66,.1,1.33,.19,1.97,.28,.65,.09,1.3,.18,1.91,.28,1.65,.35,3.3,.65,4.94,.93,.86,.15,1.72,.3,2.57,.45,2.46,.43,4.9,.9,7.3,1.53,1.48,.39,2.94,.85,4.38,1.41,.49,.12,.98,.22,1.48,.31,1.48,.27,3.01,.42,4.58,.42,1.53-.18,2.87,.74,4.2,1.37,.16,.09,.32,.18,.48,.27,.03,.02,.06,.04,.1,.06,.28,.17,.56,.36,.84,.55,.29,.21,.58,.43,.85,.67h0c.47,.41,.91,.86,1.29,1.35,.53,.68,.95,1.43,1.21,2.25,.15,.47,.25,.97,.28,1.49,.02,.38,0,.76-.04,1.16,0,.06-.02,.12-.02,.19,0,.55,.19,1.1,.53,1.61,.2,.49,.45,.95,.72,1.41,.37,.62,.77,1.21,1.17,1.82,.16,.24,.33,.49,.49,.74,.06,.09,.11,.17,.16,.25,.01,.01,.02,.02,.02,.03h-.03c-.35,.06-.71,.11-1.07,.17h.02Z"/>
        <path class="cls-53" d="M29.93,97.65c.37,.2,.69,.46,.98,.74,.29,.28,.55,.6,.8,.91,.5,.63,.98,1.27,1.65,1.73-.61-.38-1.24-.67-1.9-.91-.66-.24-1.34-.41-2.01-.53-2.79-.22-4.17-2.78-6.66-4.98-1.72-1.47-5.88,4.03-6.64,6.04-2.68-3.67-2.48-8.62-.14-12.53,.28-.54,.56-1.09,.85-1.63,.86-1.63,1.66-3.27,2.05-5.04,.12-.42,.23-.86,.3-1.29,.22-1.31,.15-2.65-.57-3.89,.19,.18,.38,.18,.57,.37,.57-4.04,1.34-7.88,1.88-11.99,.03-.52,.03-1.02,.03-1.58,.19,.18,.19,.55,.38,.74,1.72-3.67,.57-9.17,5.16-10.63,2.48-.92,4.4,1.28,4.59,3.48,0,2.52-.97,4.9-1.73,7.32-.15,.49-.3,.98-.42,1.47-.9,5.14,1.01,10.46,3.14,15.28,.23,.49,.45,.98,.66,1.46,.22,.49,.41,.99,.58,1.49,.33,.99,.55,1.99,.6,2.99,.02,.56,0,1.11-.11,1.68-.53,1.85-1.3,3.68-2.14,5.45-.42,.88-.85,1.75-1.28,2.59-.38,.76-.61,1.26-.61,1.26Z"/>
        <path class="cls-70" d="M27.73,38.96c-.58,1.22-1.19,2.46-1.77,3.74-.19,.42-.38,.85-.55,1.29-.43,1.6-.7,3.23-.85,4.87-.05,.55-.09,1.1-.12,1.66-.08,3.56,.68,6.86,.68,10.34,1.91-1.28,3.63-2.75,4.2-4.95,0,2.75-.53,5.37-.82,8.08-.06,.54-.11,1.09-.13,1.64,.36-.5,.7-1.02,1.01-1.55,2.21-3.68,3.42-7.85,3.62-12.02,.03-.61,.01-1.22-.05-1.82-.24-2.4-1.24-4.69-3.48-6.7-.3-.52-.57-1.05-.77-1.62-.2-.57-.33-1.17-.37-1.81-.36-.75-.62-1.16-.62-1.16h0Z"/>
        <path class="cls-56" d="M77.17,26.96c-.5,.13-1,.25-1.5,.35-.51,.1-1.01,.18-1.52,.27-.5,.09-1.01,.17-1.52,.25-.63,.05-1.26,.1-1.89,.14-.63,.04-1.26,.08-1.88,.12-.59,.02-1.18,.04-1.77,.07-.59,.03-1.18,.06-1.78,.1-3.66,.34-7.29,.71-10.93,1.81-2.3,.74-4.78,.55-7.22,.97-.55,.13-1.05,.28-1.48,.46-.72,.02-1.08,.4-1.18,.89-.1,.49,.07,1.08,.39,1.53,.49,1.11,.69,2.39,1.45,3.49,1.62,1.93,3.44,3.71,5.13,5.57,.21,.23,.42,.47,.63,.7,2.61,2.17,3.11,5.43,4.25,8.33,.37,1.13,1.26,2.14,2.46,2.64,.35,.17,.73,.31,1.13,.41,.35,.09,.71,.15,1.07,.2,1.38,.14,2.89-.12,4.23-.43,.34-.09,.67-.19,1-.29,1.32-.42,2.6-.97,3.8-1.61,.28-.13,.56-.26,.85-.39,.85-.38,1.71-.74,2.58-1.08,.44-.17,.87-.33,1.31-.48,.4-.24,.82-.39,1.23-.49s.82-.12,1.21-.13c.39-.04,.79-.09,1.2-.16,.37-.07,.74-.15,1.11-.24,.37-.09,.74-.2,1.11-.31,2.22-.53,4.61-1.15,5.75-3.42,.88-2.01,.12-4.02-.83-5.74-.17-.37-.37-.72-.57-1.04-.22-.35-.46-.68-.69-1.02s-.48-.67-.72-1c-.37-.51-.72-1.01-1.06-1.51-.28-.61-.58-1.21-.88-1.81-.3-.6-.61-1.21-.93-1.8-.27-.33-.49-.68-.68-1.06-.19-.37-.37-.76-.55-1.15-.33-.66-.7-1.55-1.53-2.15-.48-.61-.77-.98-.77-.98h.01Z"/>
        <path class="cls-30" d="M27.75,41.37c.26,.53,.48,1.08,.65,1.63,.18,.55,.35,1.11,.52,1.66,.4,1.9,1.16,3.73,2.88,4.83,1.53,.92,2.1-.92,3.03-1.45,.48-.32,.97-.64,1.45-.97,.42-.28,.85-.56,1.27-.84,.42-.28,.85-.57,1.27-.86,.4-.35,.82-.66,1.24-.97,.42-.3,.86-.6,1.28-.89,.26-.26,.58-.54,.93-.82,.35-.28,.72-.58,1.1-.89,3.93-2.03,3.74-6.25,.79-8.92-.35-.56-.68-1.14-1.01-1.74-2.3-4.18-4.26-9-8.28-10.44-.57-.18-1.34,.06-2.14,.56-1.14,.8-1.94,1.75-2.51,2.79-.29,.52-.51,1.07-.7,1.63-.48,3.07,.09,6.23-.09,9.29-.04,.61-.11,1.22-.22,1.82-.26,1.33-.84,2.43-1.27,3.66-.13,.57-.2,.91-.2,.91h0Z"/>
        <path class="cls-35" d="M42.4,41.51c-.67-.44-1.24-.92-1.79-1.42-.54-.49-1.05-1.01-1.58-1.51-.35-.34-.71-.67-1.09-.99,.38,.18,.57,.18,.96,.18-.19-.74-.52-1.47-.98-2.13-.23-.33-.49-.65-.77-.94-.28-.29-.58-.55-.9-.78,.52-.46,1.07-.68,1.62-.71s1.09,.12,1.58,.41c.98,.58,1.73,1.69,1.91,2.9,.15,.49,.28,1,.39,1.52,.23,1.04,.39,2.1,.59,3.02-.13-.12-.23-.22-.3-.29,0,0,.56,.58,.36,.73Z"/>
        <path class="cls-68" d="M44.43,35.15c.3,.49,.63,1,.99,1.4,.36,.39,.74,.67,1.12,.67,1.34-.55,1.91-2.02,2.3-3.3-.19,.18-.38,.55-.57,.74,.19-1.28-1.15-2.02-1.69-3.05-.2-.18-.46-.43-.76-.74-3.67-3.73-6.34-8.13-10.93-10.88,2.68,3.85,5.5,7.56,7.57,11.69,.3,.59,.58,1.19,.84,1.8,.69,1.03,1.12,1.67,1.12,1.67Z"/>
        <path class="cls-44" d="M37.25,26.47c-.51,.79-1.39,1.1-2.31,1.09-.46,0-.93-.09-1.36-.23-.44-.14-.85-.33-1.18-.56-.48-.46-.73-.98-.81-1.51-.25-1.6,1.04-3.38,2.31-4.3,.36-.34,.7-.67,.99-.97,0,.6,.12,1.15,.32,1.67,.2,.52,.47,1.01,.78,1.49,.43,1.05,1.58,1.79,1.96,2.89-.76-.55-1.53-1.1-2.68-.92,.38,.18,.76,.55,1.1,.69,.48,.24,.95,.46,.88,.66Z"/>
        <path class="cls-8" d="M84.5,45.54c.14-1.59,.01-3.09-.31-4.75-.06-.31-.13-.62-.23-.92-.13-.35-.31-.69-.55-1.01-.19-.33-.39-.66-.62-.97-.22-.31-.46-.61-.71-.91-.34-.39-.7-.75-1.1-1.1-.51-.39-1.05-.8-1.6-1.17-.56-.37-1.14-.73-1.75-1.02-.41-.2-.83-.37-1.26-.52,0,.56,0,1.29-.02,1.88-.03,.65-.08,1.34-.13,2.03-.05,.7-.1,1.4-.13,2.11,0,.32,0,.65,.03,.99,.26,1.23,.6,2.65,1.11,4,.1,.27,.21,.54,.33,.8,.34,.74,.69,1.52,1.15,2.19,.15,.23,.32,.44,.5,.63,.16,.23,.36,.43,.57,.61,.22,.17,.45,.31,.7,.4,1.78,.54,3.91-.72,3.61-2.65,.25-.38,.41-.63,.41-.63Z"/>
        <path class="cls-13" d="M100.41,63.32c.22-.49,.27-1.01,.32-1.55,.05-.54,.08-1.1,.25-1.65-.31-2.22-.92-4.42-1.77-6.56-.14-.36-.29-.71-.45-1.07-.81-2.38-2.45-4.27-3.54-6.39-.2-.33-.4-.65-.61-.96-.17-.26-.36-.51-.54-.76-.19-.25-.38-.48-.59-.71-.71-.83-1.59-1.6-2.57-1.94-.33-.11-.66-.17-1.01-.17-5.65,.62-4.02,7.79-4.09,11.79,.04,.4,.08,.81,.11,1.21,.06,.8,.1,1.6,.07,2.4,.01,.41,.02,.81,0,1.22-.03,.45-.08,.9-.12,1.36-.12,.75,.5,1.38,.97,1.95,.24,.25,.51,.48,.81,.69,.88,.62,1.96,1.05,3.24,1.23,.36,.09,.73,.16,1.1,.21,1.11,.15,2.25,.12,3.35-.1,.57,0,1.13,0,1.7-.02,.56-.01,1.12-.04,1.66-.06,1.01-.06,1.69-.1,1.69-.1h0Z"/>
        <path class="cls-10" d="M82.63,34.92c.51,.21,1.02,.45,1.53,.71,.51,.26,1.01,.54,1.49,.85,.57,.36,1.11,.74,1.62,1.16,.26,.21,.51,.42,.75,.64,.24,.22,.48,.45,.7,.69,.44,.62,.97,1.32,1.45,2.06,.16,.25,.32,.49,.47,.75,.78,1.43,1.53,2.81,1.03,4.44-.25,.75-1.26,1.26-1.76,.37,.63,1,.37,2.64-.88,2.76-5.15,.75-4.4-5.65-4.78-9.08-.07-.38-.15-.77-.26-1.15-.11-.36-.22-.72-.34-1.07-.18-.54-.37-1.08-.59-1.61-.29-.95-.45-1.52-.45-1.52h0Z"/>
        <path class="cls-72" d="M85.62,45.76c.52,.08,1.02,.33,1.53,.45-1.38-1.51-1.38-3.64-1.64-5.56-.09-.37-.19-.73-.33-1.08-.11-.31-.25-.62-.41-.91-.18-.36-.37-.71-.56-1.05-.31-.56-.62-1.11-.96-1.66-.57-.93-1.09-1.94-1.78-2.81-.35-.44-.74-.84-1.19-1.18-1.97-1.27-4.16-1.49-6.39-1.21-.45,.06-.89,.13-1.34,.23-1.72,.74-1.72,2.94-.6,4.18,.23,.35,.48,.69,.69,1.04s.4,.71,.5,1.1c.29,.52,.6,1.04,.9,1.57,.13,.33,.29,.66,.47,.98,.17,.32,.36,.63,.55,.94,.78,1.26,1.66,2.4,1.91,3.9,.5-1.76,.12-3.39-.07-5.21-.01-.35-.01-.7,0-1.04,.03-.61,.09-1.23,.21-1.83,.12-.61,.31-1.2,.61-1.78,.48,.25,.92,.54,1.35,.86,.43,.31,.82,.63,1.18,.98,.32,.31,.61,.62,.88,.96,.28,.33,.53,.67,.78,1.02,.27,.36,.52,.73,.76,1.11,.24,.38,.45,.78,.65,1.19,.56,1.48,1.31,2.87,1.92,4.23,.22,.34,.38,.57,.38,.57h-.01Z"/>
        <path class="cls-12" d="M82,43.1c-.38-.53,.12-1.04,.62-1.04,1.63,.12,2.76,1.13,3.52,2.51h-.37c1,1.51,4.27,3.77,1.51,5.15-3.52,1.63-5.03-3.02-5.09-5.81-.08-.4-.19-.82-.19-.82h0Z"/>
        <path class="cls-16" d="M65.02,103.36c-5.48-3.44-11.6-5.46-17.58-8.2-.56-.24-1.06-.45-1.47-.62l-1.31-.55-2.07-3.99-.98-1.88c-.64-1.57-1.44-3.1-2.26-4.62-.27-.5-.56-1.01-.84-1.52-.96-1.64-1.91-3.28-2.64-4.97-.37-.85-.67-1.71-.89-2.59-.13-.53-.23-1.07-.3-1.62,0-.46,.09-.87,.27-1.22,.18-.35,.45-.62,.8-.8,.35-.23,.74-.39,1.16-.46,.41-.07,.83-.05,1.21,.09,.5,.16,1.01,.29,1.51,.41,.51,.12,1.02,.21,1.54,.3,1.78,.39,3.56,.67,5.34,.88,.6,.07,1.19,.13,1.8,.2,1.82,.29,3.62,.52,5.42,.73,.6,.07,1.2,.13,1.79,.2,.69,.05,1.38,.11,2.09,.15,3.05,.24,6.11-.68,9.17-1.05,1.21-.12,2.38,.02,3.52,.29,.57,.13,1.14,.3,1.7,.48,2.61,1.25,5.87,.7,8.35,1.98,5.16,2.94,10.52,3.67,16.06,5.14,.38,.18,.96,.74,1.15,1.24,.19,.31,.35,.66,.47,1.03,.12,.37,.21,.75,.26,1.15,.08,.53,.11,1.08,.12,1.61,.02,1.35-.14,2.71-.47,4.05-.11,.45-.24,.89-.39,1.33-.27,.66-.61,1.31-.98,1.93-.38,.62-.81,1.22-1.28,1.77-3.07,1.83-5.75,4.03-8.61,6.23-2.1,1.84-4.59,3.12-7.39,3.74-.63,.17-1.29,.3-1.96,.38-.67,.08-1.36,.11-2.08,.08-2.91,.2-5.59-.72-8.23-.75-1.21-.3-2.01-.56-2.01-.56h0Z"/>
        <path class="cls-7" d="M66.33,90.13c-.43,.77-.98,1.39-1.44,2.04-.23,.33-.44,.66-.61,1.03-.35,4.16-5.13,2.51-7.99,2.33-.19-.18-.19,.37-.19,.74-2.3-.18-4.02-1.84-6.21-2.73-.69-.33-1.36-.67-1.97-.97l-2.11-1.06s-.94-1.46-2.29-3.56l-1.09-1.69c-.32-.54-.65-1.07-.98-1.6-.33-.53-.67-1.06-1.01-1.59-1.58-2.76-4.02-5.3-5.22-8.26-.2-.49-.37-1-.49-1.51-.12-.53-.22-1.11-.21-1.67,.02-.56,.16-1.09,.53-1.51,.41-.44,.98-.71,1.55-.62,.64,.07,1.29,.14,1.93,.21,.64,.07,1.28,.14,1.92,.22,1.77,.42,3.55,.79,5.32,1.09,.6,.1,1.19,.2,1.79,.29,1.76,.34,3.53,.63,5.29,.87,.59,.08,1.18,.16,1.77,.24,.66,.07,1.33,.14,2,.22,.42,.08,.85,.13,1.27,.17,3.55,.37,6.61-1.83,10.24-1.28,1.24,.27,2.34,1.01,3.06,1.97,.24,.32,.44,.67,.58,1.03,.37,1.22,.37,2.68-.34,3.86-.2,.5-.42,.99-.66,1.47-1.42,2.9-3.35,5.54-3.75,8.66-.41,.99-.7,1.63-.7,1.63h0Z"/>
        <path class="cls-65" d="M68.4,64.89c-1.07-.72-2.32-.79-3.51-.55-.3,.06-.6,.14-.88,.24-2.86,1.24-6.13,1.36-9.24,1.38-.38,0-.76,.02-1.14,.03h-1.18c-1.58-.02-3.16-.1-4.74-.27-.67-.01-1.34-.03-2-.05-2-.04-4.01-.06-6.02,0-.55,.04-1.1,.06-1.64,.03-.54-.02-1.07-.09-1.59-.21-.52-.12-1.03-.3-1.53-.54-4.05-2.8-1.76-8.48-1.8-12.43,.1-.47,.21-.94,.35-1.4,.26-.93,.6-1.83,1.03-2.7,.33-.47,.72-.9,1.16-1.3,.38-.37,.79-.75,1.22-1.13,.83-.72,1.72-1.44,2.69-2.07,.49-.31,.99-.61,1.52-.86,.7-.33,1.4-.57,2.09-.74,2.73-.56,5.43-.13,8.03,.78,.43,.15,.86,.32,1.29,.49,3.25,1.24,5.89,3.5,8.96,5.32,.34,.19,.68,.38,1.03,.55,1.73,.88,3.55,1.57,5.41,1.99,.43,.13,.86,.26,1.3,.37,.56,.14,1.11,.3,1.65,.5,.53,.21,1.05,.47,1.53,.84,.97,.72,.97,1.62,.61,2.5-.12,.29-.28,.59-.46,.87-1.95,2.23-2.21,5.38-3.86,7.83-.16,.32-.25,.51-.25,.51h0Z"/>
        <path class="cls-55" d="M63.18,63.83c.34-1.15,.09-2.28,.47-3.42-.25-.12-.5,0-.75,.25,0-.25,.25-.5,.37-.75-1.41,.14-2.69-.26-3.87-.93-.39-.22-.78-.48-1.16-.75-.5-.36-.94-.8-1.35-1.26-.21-.23-.4-.47-.6-.71-.22-.37-.55-.69-.89-1-.34-.31-.68-.63-.93-1,.29-.11,.59-.17,.88-.22,1.47-.21,2.93,.26,4.35,.5,.39,.09,.77,.17,1.16,.24,1.15,.23,2.27,.39,3.38,.52,.37,.06,.74,.12,1.11,.17,1.84,.3,3.67,.63,5.46,1.05-.88,1.76-2.26,2.89-3.14,4.65-.88,1.63-1.26,3.52-1.82,5.29-.12,.37-.22,.74-.32,1.11-.22-.22-.4-.46-.56-.72-.16-.26-.3-.53-.44-.8-.12-.31-.28-.59-.46-.85-.17-.26-.36-.52-.54-.78-.22-.36-.35-.59-.35-.59h0Z"/>
        <path class="cls-73" d="M78.67,90.68c-.77,.08-1.53-.11-2.3,.26-.48,.37-.97,.71-1.47,1.03-1.5,.95-3.12,1.67-4.83,2.06-.56,.12-1.13,.2-1.69,.21-.83,.02-1.63-.09-2.33-.41-.35-.16-.67-.37-.96-.63-.29-.26-.55-.59-.76-.98-.29-.55-.38-1.33-.6-1.97-.21-.64-.55-1.15-1.32-1.15s-1.72-.18-2.48,.18c.38-.37,.76-.55,1.15-.74-2.68-.74-5.35,1.1-8.09,.61-.48-.01,2.72-.34,2.51-.4,0,0-2.86,.15-2.1-.1,1.38-.3,1.57-1.4,1.76-2.5,0-.74,1.53-1.65,2.68-2.2-.76,0-1.34-.18-2.1-.37,.38,0,1.75-.37,1.77-.74-.4-.54-2.73-.54-2.54-1.27,0-.55-1.79-.57-2.56-.76-.45-.3,3-.94,2.18-1.22-.41-.14-2.95-.26-3.38-.29-.44-.03,2.31-1.33,1.84-1.39-.62-.21-4.58,1.09-5.15,.72-.35-.22,1.78-.88,1.43-1.11-1.45-.62-3.76-.9-5.43-1.27-.38-.14-2.09-1.01-2.5-1.1,.19-.18,.57-.18,.76-.37-1.91-.61-3.82-1.22-5.74-1.84-.38-.12-.76-.25-1.15-.37,.22,.52,.47,1.02,.74,1.5,1.35,2.42,3.21,4.46,4.8,6.75,.57,1.1,3.82,.74,5.9,.84,0,0-.57,.92-1.06,2-.49,1.09-.91,2.33-.6,2.99,.62,1.32,1.95,1.81,1.95,1.81,0,0-.84,.05-.56,.99,.27,.95,1.41,.71,2.53,1.77,.56,.53,.75,.94,.98,1.26,1.36,.8,3.85,1.35,3.47,2.63-.19,.92-2.3,.55-3.63,.18,1.53,1.84,4.2,3.48,3.82,6.24-1.53-.74-3.25-1.84-4.97-1.28-.96,.18-.76,1.47-.76,2.38-.38-.74-1.15-.92-1.85-.98-.75,.03-1.54,.36-2.06,.83-.48,.26-.96,.52-1.43,.71-.96,.37-1.72-.36-2.55-.77-.57-.22-1.08-.49-1.53-.79-3.2-2.1-3.87-5.94-3.38-9.7-.08-.38-.19-.75-.35-1.11-.8-1.2-1.38-2.66-1.14-4.1,0-.42-.03-.83-.07-1.23-.07-.82-.21-1.61-.38-2.4-.12-.52-.25-1.05-.4-1.56-.12-.48-.25-.94-.38-1.4-1.68-4.97-3.4-9.93-3.06-15.15,.06-.67,.15-1.34,.27-2,.61-3.32,2.07-6.51,4.96-8.32,.55-.15,1.15-.2,1.81-.12,.76,.04,1.52,.17,2.26,.39,1.8-.05,3.58,0,5.35,.13,.36,.03,.71,.06,1.08,.08,2.54,.37,4.93-.38,7.44-.38-.63-.12-1.13,.37-1.63,.63,.37-.12,.75-.25,1-.12,1.63,1.88,2.01,4.53,4.19,5.91,.32,.21,.65,.41,.99,.59,1.7,.91,3.61,1.41,5.5,1.41,.63,0,1.38,.5,2.04,1,.32,.24,.63,.5,.94,.77,.61,.54,1.19,1.12,1.76,1.56,.24,.23,.48,.47,.71,.71,.47,.48,.92,.97,1.37,1.47,.23,.24,.44,.48,.65,.73,.43,.49,.83,1,1.21,1.52,.38,.52,.74,1.06,1.08,1.61,2.55,3.9,3.31,8.67,4.76,12.92,.11,.37,.22,.75,.33,1.13,.33,1.13,.64,2.26,.96,3.39,.21,.44,.33,.69,.33,.69h.02Z"/>
        <path class="cls-41" d="M40.65,104c-.98-.23-1.94-.6-2.75-1.21-.41-.24-.83-.47-1.23-.72-.41-.24-.81-.5-1.22-.75-.54-.34-1.07-.69-1.6-1.05-.43-.28-.86-.56-1.29-.84-.43-.28-.86-.56-1.29-.85-.42-.3-.84-.6-1.24-.89-1.84-1.45-3.94-2.91-4.9-5.11-.38,1.1-.19,2.38-.19,3.48-.57-.74-.96-1.47-1.53-2.2-.76-.92-2.1-.37-1.72,.74-.19-2.2-.68-2.76-1.67-5.76l3.55,3.12c-1.38-4.4,.52-1.88,.57-2.44,0-.6-1.87-3.63-1.87-4.27,0,1.1,1.15,1.1,1.72,.55-2.58-4.97,1.48-.55,1.15-1.65-.14-.54-1.43-2.94-1.72-3.48,.38,.37,2.35,3.51,2.72,3.14-2.17-3.99,.55-1.12,1.31-1.12-2.3-2.38-4.04-7.88-4.04-11,1.34,2.2,2.1,4.58,3.44,6.78,0-.37,0-.92,.19-1.28,.29,1.24,.47,2.47,.8,3.7,.11,.41,.24,.82,.39,1.23,.73,1.49,2.25,2.41,3.97,2.78-.14-.5-.34-1-.55-1.48-.24-.57-.5-1.14-.77-1.7-2.49-4.7-3.26-10.39-2.84-15.74,.13-.48,.3-.93,.49-1.38,.57-1.33,1.29-2.61,1.96-3.89-.29,1.19-.62,2.43-.82,3.68-.07,.42-.12,.84-.14,1.26,0,4.4,2.11,8.44,3.81,12.39,.2,.43,.4,.87,.6,1.33,.26,.53,.52,1.07,.78,1.6,1.56,3.2,3.02,4.46,4.61,7.64,.24,.37,1.9,2.23,2.1,2.53,.42,.61,2.22,2.57,2.47,2.83,0,0-3.7-1.63-4.85-2.18-.57-.27-1.2-.56-1.79-.77-.12-.05-.24-.08-.35-.12-.3-.09-.51,.28-.28,.48,.91,.76,4.52,4.8,4.79,6.01-.57-.18-3.67-3.31-4.24-3.31,.57,1.1-.37,1.68,2.35,4.67-.57-.74-3.68-2.47-3.68-1,0,1.65,1.18,2.79,2.4,3.8,.41,.34,.82,.66,1.19,.99,.59,.57,1.02,1.04,1.22,1.5h0Z"/>
        <path class="cls-36" d="M36.81,103.35c-.48-.43-.98-.84-1.48-1.24-.51-.4-1.03-.79-1.55-1.18-.92-.62-1.82-1.24-2.7-1.88-.44-.32-.87-.65-1.29-.98-1.8-1.27-2.75-3.29-3.71-5.3,.38,0,.57-.18,.96-.18-.19-.55-.38-1.28-.64-1.88-.16-.68-.12-1.33,.45-1.79,.19,0,.38,.37,.38,.55,.38-2.02-1.91-3.3-1.53-5.32,1.53,2.38,2.68,4.77,4.97,6.6,1.34,.92,2.3,1.84,3.22,2.98,.19,.34,.33,.7,.42,1.06,.19,.92-.57-.18-.76,.18-.57,.92,.19,1.1,.57,1.47-.67-.37-1.43-.6-2.12-.92-.94-.18-1.13-.92-1.52-1.47,.19,1.1,.38,2.2,1.29,3.03,.33,.46,.7,.9,1.08,1.31,.38,.41,.79,.81,1.21,1.18,.41,.42,.82,.85,1.22,1.28,.39,.44,.78,.89,1.12,1.36,.24,.39,.38,.77,.4,1.14h0Z"/>
        <path class="cls-57" d="M86.76,98.31c.12-2.61,2.8-3.89,4.55-5.27,.61-.27,1.23-.51,1.87-.71,.64-.2,1.29-.36,1.93-.48,1.34-.18,2.48-.74,3.63-1.65-.32,1.16-.66,2.32-1.07,3.44-.21,.56-.43,1.11-.66,1.64-3.25,5.54-8.6,10.12-13.75,14.14-.38,.27-.77,.52-1.18,.74-1.22,.69-2.55,1.19-3.97,1.46-.53,.04-1.06,0-1.6-.15-.54-.14-1.1-.39-1.68-.76-1.9-1.28-.95-3.85,.38-5.26,.24-.33,.49-.65,.74-.95,.78-.91,1.66-1.7,2.62-2.38,.43-.31,.86-.6,1.32-.87,1.83-.99,3.93-2.09,6.08-2.65,.49-.2,.79-.31,.79-.31h0Z"/>
        <path class="cls-39" d="M68.35,115.55c-.06,0-.09-.03-.06-.09,0,.03,.02,.06,.06,.09Z"/>
        <path class="cls-39" d="M92.8,95.15c-.55,0-1.11,.51-1.32,.87,0,.01-.01,.02-.02,.04-1.55,1.49-3.02,2.98-4.59,4.26-.01,.01-.03,.02-.04,.03-.09,.07-.17,.14-.25,.2,0,0-.01,.01-.02,.01-.98,.77-2.01,1.46-3.13,2.02-.75,.38-1.54,.69-2.39,.93-.56,.19-1.13,.36-1.72,.49-.58,.14-1.19,.24-1.81,.3,.26,.05,.53,.09,.79,.12,.68,.1,1.33,.17,1.88,.43-1.14,.18,3.09,.18,1.96,.73,0,.01-3.88,.29-4.68,.36h.01c.81,0,2.97,.08,2.9,.65-.05,.14-.74,.41-1.61,.7-1.34,.45-3.07,.94-3.36,1.05h.78c-.39,0,2.91-.18,2.53,.01,.54,.43-2.21,1.39-1.65,1.5,1.06,.14,2.01,0,2.92-.32,.69-.23,1.34-.55,1.99-.9,.05-.02,.1-.05,.15-.08,.46-.24,.92-.5,1.39-.74,1.02-.28,2.28-1.18,3.26-1.23,.41-.03,.78,.1,1.06,.47,.35,.22,.07,.38-.29,.5-.1,.19-.13,.45-.28,.6,.19,0,.57-.18,.76-.18-.19,.92-1.53,1.47-1.53,2.38,.19,.37,.58,.18,.96,0-.38,.18-.76,.55-1.05,.7-.35,.26-.7,.53-1.02,.83-1.28,1.19-2.25,2.7-2.1,4.57,0,.15,0,.3,.01,.45,.01,.3,.04,.59,.07,.9,0,.06,.02,.11,.02,.17,0,.08,.02,.16,.03,.25-.05,.01-.1,.02-.15,.02h-.03c-.35,.06-.71,.11-1.07,.17-1.22,.19-2.46,.35-3.73,.5-.54,.06-1.1,.12-1.65,.18-.03-.02-.06-.02-.1,0h-.01s0,.01,0,0c-.03-.14-.85-.3-1.84-.47-.94-.15-2.04-.31-2.73-.46-.39-.09-.66-.17-.7-.25-.11-.08,.04-.21,.33-.34,.59-.28,1.78-.62,2.61-.81-1.17-.06-3.06-.34-3.13-.08-.19-.64,2.85-.48,2.88-1.12,.01-.37-1.84-.15-3.46-.01-1.06,.09-2.02,.14-2.28-.03,.25,.03,1.12-.33,1.95-.67,.89-.36,1.74-.7,1.74-.5,.11-.69-2-.44-2.18-.98-.3-.48-.97-.83-1.46-1.22-.3-.23-.54-.48-.58-.78-.02-.15,0-.31,.1-.49-.95,.18,1.96-.54,1-.91,1.15-.92-.19-2.38-1.53-2.38,.38-.55,.77-.92,1.15-1.28-1.15-.18-2.1,.18-3.25,.55,.19-.18,.19-.37,.38-.55-.54,.06-1.06,.05-1.55-.02-.65-.14-1.29-.31-1.91-.51-2.96-1.34-5.86-2.89-8.54-4.7-1.02-.69-2.02-1.42-2.97-2.19-1.04-.83-2.02-1.72-2.94-2.66-.86-.66-1.47-1.12-1.47-1.12l1.23,.05,.62,.02c-.62-.26-1.07-.83-1.37-1.33-.3-.5-.44-.95-.44-.95,.49,.14,.96,.31,1.43,.51,.47,.2,.94,.42,1.41,.67,.62,.56,1.3,1.06,2.01,1.51,4.09,2.65,9.36,3.78,14.04,5.13,.65,.08,1.32,.14,1.99,.19,.6,.06,1.2,.1,1.8,.15,1.8,.12,3.59,.18,5.35,.24,.61,.02,1.21,.03,1.82,.02,.67-.06,1.33-.14,1.97-.27,.65-.12,1.28-.27,1.91-.46,.53-.16,1.05-.35,1.55-.57h.01c.82-.34,1.6-.75,2.38-1.19,1.01-.57,2-1.19,3.03-1.82,.45-.28,.9-.55,1.37-.82,1.34-.74,2.87-1.47,4.4-1.1l.03,.02Z"/>
        <path class="cls-76" d="M70.45,69.7c-.42,0-.84-.06-1.26-.15s-.82-.23-1.2-.41c-1.09-.42-1.79-1.37-2.17-2.41-.13-.35-.23-.7-.29-1.05,0-1.88-.75-4.52,1.01-5.9,.12,.25,.25,.37,.37,.63,.37-2.39,3.27-3.9,5.58-3.05,.27,0,.54-.02,.81-.04,.67,.11,1.15,.49,1.49,1.03,.34,.54,.55,1.25,.67,2.02,.55,1.62,.39,3.58-.36,5.28-.25,.57-.56,1.11-.94,1.59-.86,.77-1.44,1.87-2.97,1.89-.47,.35-.75,.57-.75,.57Z"/>
        <path class="cls-11" d="M94.25,59.17c-.08-.25-.19-.51-.34-.75-.24-.39-.55-.74-.91-.98-.36-.24-.77-.37-1.21-.31-.03-.44-.1-.93-.21-1.42-.11-.49-.26-.98-.48-1.41-.11-.3-.28-.56-.49-.77-.21-.26-.46-.44-.74-.55-.27-.11-.57-.14-.87-.12-.3,.02-.61,.11-.9,.25-.29,.14-.57,.33-.81,.56-.18,.2-.29,.42-.35,.65-.23,.92,.36,2,.95,2.89,.12,.27,.25,.55,.39,.81,.41,.78,.94,1.47,1.81,1.9,.33,.18,.68,.34,1.03,.47,1.06,.4,2.16,.63,3.3,.63,0,0,0-.5-.09-.84-.04-.5-.11-1.03-.11-1.03h.01Z"/>
        <path class="cls-3" d="M93.15,59.71c-.37-.34-.24-.63-.07-.93,.22-.25,.22-.51,.1-.88,.12,.25,.37,.5,.63,.75,.12-1.26-.25-2.39-.88-3.41-.21-.34-.45-.67-.7-.98-.22-.21-.46-.44-.71-.7-.3-.28-.61-.61-.87-.97-.26-.36-.48-.73-.6-1.1-.26-1.26,.87-2.89,2.25-2.64,.44,.06,.85,.19,1.22,.38,.37,.2,.7,.47,.98,.81,.22,.2,.44,.41,.65,.62,.86,.86,1.64,1.84,2.27,2.49,.33,.38,.65,.75,.98,1.08,.25,.34,.5,.68,.74,1.03,.97,1.4,1.85,2.88,2.71,4.37,.24,.49,.46,.98,.67,1.48,1.26,2.99,2.05,6.16,2.18,9.34,.05,1.21,0,2.43-.1,3.62-.28,4.65-2.66,8.6-4.02,12.95-.19,.62-.37,1.25-.51,1.89-.1,.55-.34,.96-.64,1.33-.31,.37-.69,.69-1.08,1.05,0-.37-.38-.55-.57-.55-.76,.27-1.38,.69-1.89,1.22-.5,.53-.88,1.17-1.17,1.9,0-.74,.28-1.37,.6-2.02,.31-.64,.64-1.29,.73-2.03,.17-.49,.3-1.01,.4-1.53,.1-.51,.18-1.03,.22-1.55,.03-.52,.03-1.05-.03-1.59-.19-.68-.37-1.36-.18-2.1-.39,.54-.97,.91-1.35,1.46,.19-.37,.38-.74,.38-1.1-1.53-4.22-3.82-8.62-2.7-13.28,.08-.58,.2-1.15,.37-1.72,.12-.63,.25-1.27,.39-1.89,.08-.54,.16-1.08,.21-1.6,.09-.61,.16-1.23,.21-1.85,0-.55-.19-.92-.38-1.5-.11-.54-.21-.99-.29-1.33-.08-.33-.13-.53-.13-.53h0Z"/>
        <path class="cls-4" d="M91.61,52.81c.31,.12,.63,.25,.94,.39,.26,.12,.52,.24,.77,.37,1.27,.65,2.42,1.52,3.4,2.57,.24,.27,.48,.55,.69,.84,.21,.29,.4,.59,.58,.9,.14,.25,.28,.49,.4,.74,.12,.25,.24,.51,.35,.78,.29-.92,.19-1.79-.05-2.64-.08-.28-.17-.56-.28-.84-.17-.27-.25-.56-.33-.85-.07-.29-.13-.57-.26-.82,.12,.25,.38,.5,.51,.75,.18,.25,.36,.49,.52,.74,.68,.99,1.27,2.02,1.76,3.15,.24,.53,.46,1.09,.67,1.64,.83,2.23,1.54,4.55,1.97,6.91,.11,.59,.2,1.18,.26,1.77,.07,.59,.11,1.19,.14,1.78,.03,2.34,.42,4.72-.54,6.92-.29,.64-.57,1.28-1.01,1.79-.71,.23-1.86,1.51-2.25,.6-1.53-2.57-.38-5.68-.29-8.65,.02-.49,.02-.98,0-1.47-.02-.49-.06-.98-.14-1.47-.09-.62-.22-1.23-.38-1.84-.17-.61-.37-1.22-.62-1.82-.15-.46-.31-.91-.49-1.36-.35-.9-.74-1.77-1.19-2.64-.13-.26-.27-.52-.41-.77-.09-.36-.23-.68-.41-.98-.14-.24-.29-.47-.45-.69-.16-.23-.32-.44-.49-.66-.72-.95-1.58-1.83-2.26-2.83-.17-.25-.33-.51-.48-.78-.14-.27-.27-.55-.37-.85-.11-.24-.21-.46-.3-.67h.01Z"/>
        <path class="cls-5" d="M97.57,71.29c.11-.26,.21-.8,.43-1.19,.22-.39,.55-.61,1.12-.25,0-.74,0-1.28,.03-2.02-.02-.7-.11-1.4-.38-2.07-.12-.48-.27-.95-.41-1.4,.48,.37,.86,.74,1.16,1.15,.3,.41,.52,.88,.68,1.45,.2,.61,.32,1.21,.38,1.81,.06,.6,.06,1.2,.03,1.8,0,.49-.05,1.02-.14,1.56-.4,2.33-1.54,5.63,.94,7.46,0-.18-.19-.37-.19-.55,.19-.18,.39-.18,.57-.18v.37c.19-.55,.38-1.28,.66-1.92,.23-.63,.45-1.26,.6-1.87,.09-.44,.12-.88,.08-1.35,.39,1.1,.19,2.2,.12,3.24-.09,.53-.22,1.06-.38,1.59-.14,.44-.29,.88-.45,1.32-.24,1-.82,1.73-1.07,2.63-.18,.44-.36,.88-.52,1.33-.33,.89-.61,1.78-.77,2.7-.09,.39-.16,.79-.22,1.19-.07,.61-.1,1.23-.26,1.8-.16,.57-.45,1.07-1.02,1.44-.38,0-.57-.37-.57-.74-.57,.46-1.15,1.01-1.7,1.58-.55,.57-1.08,1.17-1.55,1.72,.1-.74,.33-1.47,.6-2.2,.27-.73,.57-1.46,.78-2.18,.14-.53,.26-1.07,.37-1.6,.09-.55,.15-1.11,.17-1.68,.02-.57,0-1.14-.07-1.72-.08-.48-.19-.96-.33-1.44-.39,.36-.97,.73-1.16,1.28-1.15-3.67-2.87-8.07,.33-11.15,.42-.41,.93-.77,1.54-1.09,.36-.48,.6-.8,.6-.8h0Z"/>
        <path class="cls-49" d="M92.81,81.16c.57-.13,1.14-.49,1.9-.31-1.53,3.67-4.4,6.42-8.4,7.71,.19,0,.57,0,.76,.18-1.72,1.1-3.25,2.57-5.09,3.28-.47,.19-.94,.34-1.41,.41-1.05,.17-2.07,0-2.97-.74-.3-.24-.59-.55-.85-.93,.18,0,.37-.19,.56-.19-.38-.18-.96-.18-1.34-.37,.19-.18,.57-.18,.76-.37-1.34-1.1-3.44-.55-4.78-1.65,.96-.55,2.1,0,3.06,0-1.34-.55-3.25-.18-4.2-1.47,.19,.18,.57,.55,.76,.37,.38-.55,.29-.92,0-1.22-1.72-1.35-3.82-1.53-5.73-2.45-1.15-.55-1.34-2.02-.57-3.12,.19-.18,.38,.18,.57,.37-.57-1.28-.19-2.75,.38-3.85,.96-1.47,2.87-2.2,4.59-1.47,.38,.18,.74,.41,1.06,.66,4.86,6.13,12.89,9.06,20.31,5.39,.39-.14,.62-.23,.62-.23h0Z"/>
        <path class="cls-63" d="M87.55,85.25c-2,1.47-4.68,2.39-7.2,1.89-.53-.05-1.05-.12-1.58-.23-1.05-.21-2.08-.52-3.07-.93-.57-.23-1.12-.49-1.67-.78-.91-.69-2.63-1.23-2.63-2.15,0-.46,.48-.83,1.12-1.06,5-1.33,9.2,1.97,13.59,3.01,.88,.14,1.44,.24,1.44,.24Z"/>
        <path class="cls-52" d="M71.35,69.66c-.32-.18-.74-.37-1.16-.5-.43-.14-.88-.24-1.28-.25-.73-.2-1.48,.55-1.33,1.31,0,.31,.06,.59,.17,.86,.54,1.36,2.19,2.38,2.5,3.91,0,0-.38,.18-.57,.18,.29,.34,.57,.71,.86,1.09,.28,.38,.58,.78,.88,1.17,1.14,1.78,3.43,3.43,5.53,1.96,1.91-1.28,2.3-3.85,1.34-5.87-.57-1.28-1.91-2.2-3.41-2.63-.48-.18-.97-.34-1.46-.49-.49-.15-.99-.29-1.47-.45-.36-.17-.58-.28-.58-.28h0Z"/>
        <path class="cls-17" d="M92.99,60.05c-.39-.17-.75-.37-1.09-.6-.34-.2-.64-.44-.92-.7-.27-.25-.49-.54-.68-.85-.2-.31-.37-.64-.57-.96-.23-.34-.46-.66-.73-.94-.23-.23-.61-.49-.98-.61,.12,0,.37-.12,.5-.25-.31-.19-.63-.38-.94-.58-.31-.2-.62-.4-.93-.61-.29-.22-.6-.44-.9-.66-2.25-1.3-4.01-3.31-5.29-5.63-.27-.33-.56-.65-.86-.95-1.38-1.38-2.89,.5-3.35,1.88-.15,.34-.28,.69-.37,1.04-.49,1.77-.28,3.7,.78,5.3,.19,.3,.4,.59,.63,.86,.23,.28,.49,.55,.76,.8,.27,.25,.57,.5,.88,.74,3.06,1.94,6.7,3.07,10.34,3.09,.5,.02,.99,.03,1.49,.06,.49,.02,.98,.06,1.47,.12,.38-.28,.75-.56,.75-.56Z"/>
        <path class="cls-62" d="M74.97,63.99c-.32-.23-.59-.5-.83-.81-.24-.31-.45-.64-.63-.99-.56-1.77-1.94-3.66-.84-5.38,.08-.32,.19-.61,.32-.9,.13-.28,.29-.55,.47-.79,.36-.49,.79-.91,1.27-1.26,.27-.2,.53-.37,.79-.5,.38-.19,.76-.29,1.13-.32,.37-.04,.73,0,1.08,.08,2.5,1.02,4.39,3.04,6.42,4.91,.21,.3,.37,.6,.48,.91,.33,.94,.19,1.93-.75,2.98-.2,.19-.4,.37-.61,.53-.21,.16-.43,.31-.66,.45-.45,.28-.93,.51-1.42,.73-1.94,0-3.47,1.84-5.39,1.14-.4-.38-.83-.76-.83-.76h0Z"/>
        <path class="cls-19" d="M85.1,61.34c-.46,.2-1.09,.33-1.56,.38-.51,.05-1.01,.04-1.55,.03-.57-.07-1.12-.21-1.68-.34-.55-.13-1.11-.27-1.66-.35-1.69-.19-3.99,.36-4.75,2.01-.19,.74-.19,1.65,.38,2.02,2.3,1.65,5.35,.18,7.26-1.42,.4-.28,.79-.55,1.18-.8,.29-.2,.58-.38,.86-.56,.28-.17,.56-.33,.83-.46,.44-.32,.7-.52,.7-.52h0Z"/>
        <path class="cls-71" d="M79.55,63.62c.26-.41,.6-.71,.98-.95,.38-.24,.8-.42,1.22-.59,.42-.17,.85-.34,1.24-.55,.52-.37,1.15-.74,1.15-1.37,0-.5-.25-1.26-.88-1.38,.37,.12,.63,.12,1,.12-1.26-1.88-3.27-2.76-4.78-4.27,1.88,2.26,5.03,2.51,7.69,3.38,.33,.1,.66,.19,.98,.29,.98,.3,1.95,.64,2.89,1.06,.44,.19,.86,.41,1.23,.71,.38,.29,.73,.65,1.03,1.09,.25,.37-1.13,1.38-1.92,2.01-.24,.16-.48,.31-.73,.44-.74,.41-1.54,.71-2.37,.93-.4,.11-.8,.19-1.22,.26-1.05,.04-2.15,.16-3.24,.16-.55,0-1.1-.03-1.64-.12-.54-.08-1.08-.22-1.6-.43-.51-.4-1.03-.8-1.03-.8h0Z"/>
        <path class="cls-18" d="M96.49,74.27c.36-.56,.64-1.11,.85-1.69,.21-.58,.36-1.19,.45-1.86,.06-.38,.1-.77,.12-1.16,.02-.38,.03-.76,.02-1.14,0-.51-.04-1.01-.1-1.52-.06-.5-.13-1.01-.23-1.51-.11-.6-.26-1.17-.46-1.69-.38-1.04-.94-1.86-1.67-2.21-.44-.21-.94-.25-1.51-.07-.79,.37-1.29,1.12-1.76,1.81-.18,.34-.32,.69-.4,1.06-.09,.37-.13,.74-.13,1.13,0,.47,.05,.91,.15,1.35,.11,.59,.28,1.14,.5,1.68,.17,.4,.37,.79,.59,1.17,.22,.38,.45,.76,.7,1.13,.54,.75,.92,1.48,1.45,2.16,.84,.85,1.44,1.36,1.44,1.36h-.01Z"/>
        <path class="cls-59" d="M85.34,63.95c-.55,.23-1.32,.04-1.89-.32-.64-.39-1.27-.64-1.88-.79-.61-.14-1.2-.18-1.77-.12-2.28,.37-4.41,1.55-6.3,2.95-.48,.35-.93,.71-1.38,1.08-.53,.37-.92,.74-1.3,1.11,.38-.18,.57,0,.57,.37-.57,0-1.34,.18-1.34,.74,.19,1.56,1.29,2.24,2.6,2.75,.44,.17,.9,.32,1.36,.47,1.57,.45,3.87,1,3.68,3.02-.19,.55-.96,1.1-.76,1.65,0,2.2,2.1,4.95,4.4,4.58,5.93-1.47,7.84-8.98,5.53-13.9-.16-.51-.34-1.02-.51-1.52-.18-.5-.37-.99-.55-1.48-.29-.36-.47-.56-.47-.56h.01Z"/>
        <path class="cls-82" d="M77.45,69.22c-.14-.22-1.2-.42-.6-.91,.61-.31,.72,.26,.59,.57,0,0,.28,.2,.02,.34h0Z"/>
        <path class="cls-85" d="M86.58,74.69c-.14,.21-1.31,.34-1.6-.05-.3-.39,.06-1.11,.78-.98,.79,.12,1.13,.59,.83,1.03Z"/>
        <path class="cls-85" d="M87.16,72.17c-1.05,.07-2,.07-2.77-.3,.57,0,.96,0,1.46,.25,.52,.15,1.18-.22,1.31,.05Z"/>
        <path class="cls-88" d="M82.65,72.16c-.25,.03,.36,1.06,.71,1.04,.37,0,.32-1.14-.71-1.04Z"/>
        <path class="cls-82" d="M81.91,72.33c-.33,.28-.09,.93-.42,.99-.15-.06-.61-.22-.44-.75,.11-.18,.69-.36,.86-.24Z"/>
        <path class="cls-82" d="M81,70.75c-.26,0-.47-.02-.62-.19-.05-.44,.3-.25,.53-.05-.13,.13,.4,.05,.1,.24h0Z"/>
        <path class="cls-82" d="M78.69,69.9c-.24,.03-.35-.12-.19-.31,.16-.2,.72-.42,.72-.14s-.26,.42-.52,.46Z"/>
        <path class="cls-82" d="M79.75,67.94c-.22-.27-.04-.25,.33-.2,.02,.14-.15,.2-.33,.2Z"/>
        <path class="cls-88" d="M78.71,69.73c-.04-.06,.21-.19,.21-.15,.01,.09-.09,.14-.21,.15Z"/>
        <path class="cls-88" d="M83.09,70.51c-.14,.18,.91,.73,1.27,.75,.36,.02,.78-.56,.02-.83-.76-.27-1.13-.12-1.29,.08h0Z"/>
        <path class="cls-84" d="M85.34,69.7c-.79,.23-1.52,.18-2.24,.12,.55-.13,.91-.63,1.53-.21,.17,.03,.9-.22,.71,.09h0Z"/>
        <path class="cls-84" d="M82.95,66.77c-.47,.5-1.22,.84-1.39,1.36,.05,.88,.98,1.12,1.72,1,.55-.14,.9-.68,.71-1.25,0,0-.37-.01-.49,.07,0,0,.19-1.12-.54-1.19h0Z"/>
        <path class="cls-84" d="M83.01,69c-.17-.03-.55,.2-.21,.33,.35,.13,1.05-.18,.21-.33Z"/>
        <path class="cls-84" d="M95.59,68.55c-.1,0-.24,.32-.01,.39s.49-.4,.01-.39Z"/>
        <path class="cls-76" d="M71.61,70.47l-2.92-1.09s.59-.37,.18-1.34c-.15-.1-.28-.31-.4-.58-.11-.32-.23-.65-.33-.99-.1-.34-.19-.69-.24-1.03,0-.5,0-1.01,0-1.51,.12-.25,0-.75,.5-.37,.25-2.39,.25-6.28,3.28-6.48,.29-.03,.59-.04,.89-.04,.9,0,1.79,.1,2.33,.11,.06,5.37,2.13,9.62-3.28,13.32h0Z"/>
        <path class="cls-27" d="M90.75,82.9c-.53,.69-2.54,2.7-4.7,2.12-2.32-.61-.12-.55-2.89,0-.59-.29-.94-1.12-2.02-1.01-1.23,.75-1.59,.02-2.76,.67-.4,.51-1.35,.5-1.82,.43-1.51-.23-1.47-1.34-2.52-.38-.94,.77-7.52-.01-4.74-1.68-.79,.01-3.09-3.15-1.47-3.93,5.33,1.26,17.7,1.06,22.92,3.78h0Z"/>
        <path class="cls-52" d="M72.29,70.45c-1.34-.68-2.75-1.57-4.17,.07,0,0,.57,.38,.62,.82-.94,.95,.68,.79-.12,2.97-.7,1.27-1.6,2.11-1.6,2.11,0,0,2.07,.32,2.04,.73-.03,.4-2.08,.66-2.14,1.34-.06,.68,8.45,2.84,8.45,2.84l3.01-3.39c.77-3.09-4.19-5.95-6.08-7.48h0Z"/>
        <path class="cls-19" d="M83.14,60.73c-.09,.28-.32,.46-.65,.55-1.67,.48-5.84-.98-6.57-.12-1.36,1.01-1.05,2.29-2.41,2.28,1.13,.72-1.11,2.21,.29,3.44,.76,.73,6.28-3.65,8.47-5.43,.54-.45,.88-.73,.88-.73h0Z"/>
        <path class="cls-18" d="M95.44,74.22c2.83-2.08,2.77-8.48,.53-12.17-.63-.73-1.31-1.47-2.08-1.91-.25-.14-.52-.26-.79-.33-1.6-.28-2.98,.73-3.77,2.09-.24,.32-.4,.67-.49,1.05-.96,4.14,6.58,11.26,6.58,11.26h0Z"/>
        <path class="cls-59" d="M82.69,63.3c-.91,.56-4.07-1.77-5.09-1.25-.57,.38-.92,2.9-2.05,3-2.23,.2-2.84,3.38-3.8,3.04,1.12,.96-1.08,.8-.82,2.42,1.09,.44,3.41,3.54,4.44,3.6-.46,.53,.81,1.29,.06,1.87,1.39-.25,3.7,1.2,1,2.34-.78,.21-2.24-.61-2.21,1.24,.03,1.85,8.25,1.42,8.25,1.42l5.88-4.43-5.67-13.26h0Z"/>
        <path class="cls-79" d="M94.56,64.09c1.29,2.01,2.98,10.63-.31,13.39,.04,3.01-2.79,5.62-5.43,6.85-1.6,.1-3.07-2.02-5.82-2.42-4.33,1.04-13.45,.14-16.12-2.69,2.9-3.76,17.27,7.26,16.61-7.28-.12-2.92-3.53-5.16-3.04-7.24,1.68-1.81,3.74-2.59,5.85-2.73,.42-.03,.85-.03,1.27-.01,.93,.1,1.68,.1,2.51,.37,.41,.1,.82,.21,1.21,.34,1.19,.38,2.3,.89,3.27,1.43Z"/>
        <path class="cls-77" d="M94.73,76.41c-7.99-2.27-17.88,6.97-26.91,2.26,4.79,5.32,21.78-1,26.91-2.26Z"/>
        <path class="cls-87" d="M93.33,70.06c.37,.85-.57,2.07-1.11,2.91-.13,.21-.39,.32-.63,.25-1.96-.56-4.27,1.59-6.53,1.71-.14,0-.28-.04-.38-.13-.52-.49,.49-1.53,.71-2.24,.05-.16,.02-.34-.07-.48-2.22-3.27,4.81-.76,7.2-2.26,.29-.18,.68-.08,.82,.24h0Z"/>
        <path class="cls-84" d="M94.72,68.25c-.12,0-.28,.37,0,.47,.28,.09,.61-.46,0-.47Z"/>
        <path class="cls-88" d="M94.82,70.19c-.11-.64,1.19-.2,.44,.1-.32,.02-.41,.03-.44-.1Z"/>
        <path class="cls-88" d="M94.22,71.13c.12,.03,.41-.18,.33-.21-.46-.16-.51,.16-.33,.21Z"/>
        <path class="cls-77" d="M90.49,71.7c-3.57,.49-5.29-1.83-6.6-3.56-3.07-2.66-3.55-4.61-.86-5.99,.38-.2,.84-.38,1.35-.56,2.34-.67,4.86-1.55,7.28-.83,.46,.13,.87,.3,1.23,.51,3.99,2.32,2.23,9.45-2.42,10.42h0Z"/>
        <path class="cls-88" d="M95.35,71.47c-.48,.04,.04-.49,.2-.25,.07,.14-.05,.23-.2,.25Z"/>
        <path class="cls-88" d="M93.71,71.68c-.07,.3,.16,1.19,.57,1.11,.69-.28-.1-1.67-.57-1.11Z"/>
        <path class="cls-46" d="M79.26,86.1c-.69,1.09-1.65,1.83-2.15,2.86-.25,.33-.47,.67-.68,1.02-.41,.71-.73,1.48-.92,2.34,.48-.92,.91-1.84,1.41-2.7,.25-.43,.52-.86,.83-1.26,.29-.41,.58-.83,.88-1.23,.24-.43,.45-.79,.63-1.04h0Z"/>
        <path class="cls-61" d="M74.57,88.77c-.35,.29-.66,.6-.95,.93-.29,.34-.55,.68-.79,1.04-1.23,2.03-2,4.05-2.19,6.25,.76-2.02,1.53-4.04,2.56-6.04,.21-.39,.43-.78,.66-1.16,.25-.42,.49-.77,.71-1.02Z"/>
        <path class="cls-51" d="M84.53,89.21c.11,.38,.25,.77,.39,1.14,.14,.37,.29,.75,.4,1.12,.22,.74,.32,1.47,.03,2.21,.19-.55,.24-1.1,.17-1.64-.07-.54-.25-1.08-.53-1.6-.14-.44-.29-.87-.47-1.23h0Z"/>
        <path class="cls-51" d="M92.41,85.13c-.28,.35-.44,.72-.53,1.1-.09,.38-.11,.77-.1,1.16,.07,.8,.26,1.53-.12,2.27,0-.46,.05-.92,.12-1.38,.07-.47,.16-.94,.25-1.43,.09-.53,.21-1.11,.38-1.72h0Z"/>
        <path class="cls-51" d="M79.59,90.52c-.19,.43-.39,.86-.6,1.28-.2,.43-.41,.85-.63,1.26-.86,1.67-1.74,3.31-2.38,5.02,.64-1.84,1.67-3.54,2.59-5.26,.18-.34,.37-.69,.53-1.03,.18-.43,.34-.85,.48-1.28h0Z"/>
        <path class="cls-51" d="M93.7,83.81c.23,.45,.35,.95,.4,1.45,.05,.5,.06,1,.06,1.46,0-.37,0-.73-.04-1.01-.03-.58-.13-1.31-.41-1.9Z"/>
        <path class="cls-51" d="M80.54,91.79c.42,.98,.23,2.08-.35,2.81,.19-.37,.19-.74,.38-1.15,.11-.52,.14-1.15-.04-1.66h0Z"/>
        <path class="cls-32" d="M70.63,74.04c.52,.05,1.06,.07,1.59,.03,1.47,0,3.19-.74,3.95-2.03-1.15,.92-2.3,1.47-3.7,1.8-.46,.06-.92,.07-1.38,.01-.26,.05-.43,.11-.45,.18h0Z"/>
        <path class="cls-32" d="M73.78,67.99c-.47-.02-.93-.03-1.39-.04-.47,0-.92,0-1.38,0-2.7,0-5.47,.12-8.23,.25,2.51-.75,5.28-.75,7.96-.44,.37,.06,.75,.12,1.11,.21,1.2,0,1.93,.02,1.93,.02h0Z"/>
        <path class="cls-32" d="M77.95,66.12c-1.46-.7-3-1.05-4.55-1.3-.39-.06-.78-.12-1.17-.17-1.41-.23-2.79-.48-4.05-1.23,1.26,.63,2.64,.75,3.92,1.04,.37,.08,.73,.17,1.1,.26,1.45,.38,2.86,.86,4.25,1.18,.32,.13,.51,.22,.51,.22h0Z"/>
        <path class="cls-32" d="M75.25,68.96c-5.38,.7-10.93,1.07-16.17,2.93-.48,.12-.96,.23-1.44,.35,.48-.15,.96-.3,1.45-.44,2.02-.74,4.06-1.32,6.12-1.76,.41-.09,.82-.17,1.23-.24,.41-.08,.83-.14,1.24-.21,2.07-.32,4.14-.49,6.22-.51,.47-.04,.92-.08,1.35-.11Z"/>
        <path class="cls-32" d="M60.79,74.99c3.76-2.58,8.18-3.04,12.42-3.85,.61-.12,1.21-.24,1.81-.38-.5,.18-1.01,.35-1.53,.49-.52,.15-1.04,.28-1.57,.41-3.17,.75-6.47,1.19-9.38,2.51-.6,.28-1.18,.55-1.76,.81h0Z"/>
        <path class="cls-45" d="M81.37,49.29c-.1,.29-.16,.6-.2,.9-.03,.3-.04,.61-.03,.91,.03,.61,.16,1.2,.35,1.77-.37-.63-.63-1.38-.98-1.97-.15-.34-.29-.68-.43-1.02-.14-.35-.28-.69-.43-1.04-.11-.29-.2-.58-.29-.87,0,.25,0,.38,.12,.63-.22-.25-.45-.5-.68-.74-.69-.74-1.38-1.47-1.9-2.46-.13-.25-.25-.5-.35-.75-.47-1.27-.34-2.56,1.03-3.59-.12,.63,.25,1.26,.5,1.76,.25,.36,.52,.7,.79,1.03,.34,.31,.67,.65,.97,1.02,.3,.37,.58,.77,.82,1.19,.56,.91,.69,1.79,.59,2.83,.07,.26,.11,.4,.11,.4Z"/>
        <path class="cls-64" d="M81.58,41.83c.15,.21,.32,.42,.49,.63,1.3,1.87,3.07,3.37,4.19,5.39,1.13,2.14-1,5.03-3.34,4.66-.28-.04-.56-.13-.81-.25-.57-.31-.91-.78-1.14-1.31-.12-.26-.2-.54-.27-.82-.22-.63-.35-1.39-.22-2.14,.25-1.76,1.13-3.52,.73-5.35,.04-.39,.15-.68,.37-.8h0Z"/>
        <path class="cls-24" d="M81.71,47.89c.92-1.05,2.17-1.93,3.31-.55,.88,1.26,.75,2.76-.12,3.9-.75,.75-2.01,1.38-2.76,.37-.63-.88-.88-1.88-.55-2.92,.02-.28,.06-.55,.13-.81h0Z"/>
        <path class="cls-34" d="M88.56,52.65c.07,.49-.02,.88-.22,1.18-.19,.3-.5,.5-.86,.62-.72,.25-1.66,.19-2.35-.06-1.36-.42-2.37-1.45-3.25-2.58-.18-.23-.35-.46-.51-.69,1.76,2.01,4.65,1.88,7,1.58,.12-.03,.21-.05,.21-.05h0Z"/>
        <path class="cls-84" d="M88.42,49.08c.61,1.03,.99,2.41,.53,3.49-.1,.29-.25,.55-.45,.79-.2,.24-.47,.44-.79,.6-.25,.11-.53,.17-.81,.17-.85,.05-1.68-.23-2.36-.71-.23-.16-.44-.35-.63-.55-1.15-1-1.4-2.64-.52-3.9,1-1.38,3.39-1.38,4.63-.07,.26,.11,.41,.18,.41,.18h0Z"/>
        <path class="cls-78" d="M87.72,51.08c.56,.78,.56,2.54-.7,2.04-.63-.25-.12-1.38,.49-1.66,.12-.23,.21-.38,.21-.38Z"/>
        <path class="cls-89" d="M87.16,53.49c1.88-.62,3.01-3.38,1.25-4.64-1.26-1-2.76-.75-4.27-.75,1.63,1.26,3.27,2.51,3.59,4.7-.06,.27-.53,.49-.57,.7Z"/>
        <path class="cls-77" d="M88.79,50.04c.25-.57,.12-1.07-.13-1.57-1.38-2.14-4.65-2.64-6.28-.5-1,1.38-.75,3.14,.22,4.4,.16,.22,.35,.42,.54,.6,.39,.36,.84,.62,1.32,.74,.36,.09,.73,.1,1.1,0,.37-.08,.67-.2,.9-.37,1.71-.86-.3-2.75,.58-4,.12-.25,.88-.5,1.29-.03,.21,.21,.37,.45,.48,.72h0Z"/>
        <path class="cls-14" d="M83.57,50.53c-.57-.17-1.07-.42-1.19-.92-.12-.63,.5-1,1-.88,.5,.25,.88,.75,.75,1.36,0,.27-.2,.44-.56,.44h0Z"/>
        <path class="cls-66" d="M88.16,52.57c-.5-.2-.76-.58-.88-1.08,0-.5,.5-1.38,1.13-1,.75,.37,.12,1-.08,1.59-.04,.16-.1,.33-.17,.5h0Z"/>
        <path class="cls-40" d="M73.63,45.31c.63-1.86-.7-3.51-1.63-4.96-.39-.56-.83-1.06-1.28-1.47-.46-.47-.95-.92-1.45-1.35-.81-.53-1.57-1.19-2.32-1.86-.38-.34-.75-.68-1.13-1.02-1.87-1.64-3.79-3.47-6.46-3.47,.76,.18,1.34,.92,2.1,1.28h-1.34c1.72,.92,3.44,2.02,4.65,3.71,.34,.37,.67,.74,1.01,1.1,.34,.37,.68,.72,1.03,1.06-.38-.37-.96-.55-1.53-.55,.76,.92,1.53,1.65,2.06,2.49,.27,.34,.53,.69,.79,1.06,.29,.35,.57,.73,.85,1.11,.88,1.02,1.84,2.31,3.65,2.5,.61,.24,1,.38,1,.38h0Z"/>
        <path class="cls-58" d="M53.7,52.69c-.49-.06-.86-.57-1.36-.69,0,.31,0,.72-.12,1.02-1.01,.99-2.39-.39-3.44-.74-.27-.15-.54-.3-.82-.43-.4-.28-.76-.6-1.09-.98-.21-.28-.4-.58-.57-.9-.3-.47-.54-.96-.69-1.48-.16-.53-.23-1.1-.2-1.71,0-.74,.76,1.1,.76-.92,.58-.92,1.53,.18,1.72-.18,1.53-2.57-3.63-2.02-3.44-2.94,.33-1.54,.95-2.95,1.78-4.18,.28-.41,.58-.8,.91-1.17,4.38-5.65,12.99-8.4,18.52-2.51,.47,.39,.92,.82,1.34,1.28,.84,.92,1.56,1.98,2.14,3.15,.24,.57,.43,1.17,.58,1.8,.72,2.2,.7,4.56-.05,6.64-.15,.42-.33,.82-.54,1.21-1.45,2.75-4.35,4.07-7.35,4.33-.43,.04-.86,.05-1.29,.05-2.11-.07-4.25-.57-6.37-.62-.26-.01-.41-.02-.41-.02h0Z"/>
        <path class="cls-22" d="M74.72,52.33c.44,.14,.9,.22,1.34,.34,.54,.09,.79,.46,1.29,.59,.25-2.26,.25-4.65-.81-6.81-.17-.33-.35-.65-.54-.96-.58-.95-1.26-1.84-1.92-2.72-.19-.26-.39-.53-.59-.79-.59-.79-1.17-1.57-1.71-2.36,.38,1.47,1.72,2.94,.96,4.58-1.15-.92-2.48-1.65-3.43-2.5-.37-.29-.74-.58-1.12-.88-.36-.28-.72-.57-1.08-.86-.36-.3-.7-.63-1.04-.99,.18,.45,.39,.87,.62,1.28,.23,.39,.48,.78,.72,1.18,.23,.42,.49,.83,.75,1.23,.26,.4,.52,.81,.77,1.2,.37,.71,.95,1.63,.95,2.55-.38-.37-.76-.55-1.34-.55,1.53,1.84,3.25,3.12,4.94,4.65,.75,1.03,1.23,1.84,1.23,1.84h0Z"/>
        <path class="cls-43" d="M69.77,58.41c.41-.13,.54-.38,.92-.51-.37,1.76,.88,3.27,2.64,3.02-.37-.63-.37-1.26-.03-1.88,.11-.3,.24-.6,.32-.9,.09-.3,.13-.62,.09-.93l.19,.18c.57-.37,.76-.92,.96-1.47v.55c.75-.37,.37-1.29,.75-1.84,0,.18,.19,.37,.19,.55,.29-.34,.5-.69,.66-1.05,.52-1.51,.14-3.14-.92-4.38-.28-.32-.61-.61-.97-.87-.39-.29-.82-.57-1.26-.83-1.32-.78-2.78-1.47-4-2.22-.57-.37-.76-.74-1.04-1.23-.38-.53-.72-1.09-1.01-1.67-.3-.58-.55-1.19-.76-1.82-.25-.51-.51-1.03-.79-1.53-.27-.5-.57-1-.88-1.48-.68-.88-1.25-1.98-2.21-2.71,.19,.37,.19,.74,.38,1.1-1.34-.37-2.68-.37-4.02-.37l.57,.55c-.19,0-.38-.18-.57-.18-1.91,1.1-1.91,3.48-4.02,4.22,.19,.37,.57,.74,.86,1.18,.28,.4,.56,.79,.82,1.11,.29,.37,.59,.74,.88,1.11,.98,1.97,2.11,3.73,3.63,5.41,.29,.32,.59,.64,.89,.96,1.22,1.25,2.54,2.41,3.91,3.51,.24,.25,.47,.5,.7,.76,.92,1.03,1.81,2.11,2.7,3.21,.27,.29,.43,.45,.43,.45h-.01Z"/>
        <path class="cls-6" d="M67.89,57.1c-.49-.17-.98-.41-1.37-.73-.39-.32-.67-.74-.74-1.23-.25-.88-.25-2.01,.63-2.51,.5-.25,1.13-.12,1.67,.21,.24,.18,.45,.41,.63,.66,.18,.25,.34,.51,.47,.77,.37,.75,0,1.38-.45,1.84-.4,.54-.84,1.01-.84,1.01h0Z"/>
        <path class="cls-54" d="M67.07,52.72c.23,.2,.47,.43,.69,.67,.22,.25,.42,.51,.6,.79,.35,.56,.57,1.19,.5,1.88-.12,.75-.75,1-1.13,1.51-.63,1.13,.75,1.88,1.63,2.26,.63,.37,1.51,.12,1.63-.63,.12-1.63,.88-3.02,.49-4.59-.04-.27-.11-.55-.19-.81-.16-.53-.4-1.03-.74-1.49-.14-.18-.34-.4-.55-.61-.22-.21-.46-.4-.72-.54-.56,0-.93-.5-1.45,.24-.45,.52-.77,1.31-.77,1.31h0Z"/>
        <path class="cls-54" d="M55.13,53.6c.11,.15,.23,.4,.11,.53-1.13,.37-2.39-.63-2.81-1.57-.21-.35-.37-.72-.46-1.07-.63-2.51,.12-5.03,.5-7.55,.09-.24,.2-.48,.33-.71,.12-.23,.27-.47,.44-.7,.29-.37,.72-.69,1.2-.87,.74-.3,1.54-.13,2.21,.31,.33,.22,.63,.49,.87,.81,.24,.32,.42,.67,.51,1.04,0-.18,0-.55-.19-.74,.29,0,.56,0,.83,.04,.26,.02,.52,.06,.77,.12,2.59,.46,4.22,3.22,4.1,5.74-.12,1.26-.82,2.2-1.75,2.89-.31,.23-.65,.43-1,.61-1.64,.9-3.53,1.02-5.29,1.04-.23,.05-.36,.09-.36,.09h0Z"/>
        <path class="cls-69" d="M61.69,46.98c-.8-.9-1.56-1.78-1.95-2.73-.19-.49-.33-1.01-.33-1.5s.14-.95,.52-1.31c.29-.27,.72-.5,1.15-.57,.43-.07,.86,.02,1.15,.39-.19-.37-.57-.74-.57-.92,.57-.46,1.1-.23,1.53,.23s.76,1.15,.96,1.6c.19-.18,.38-.18,.57-.37,.16,.46,.39,.91,.65,1.36,1.55,2.42,4.69,4.8,3.31,7.95-1.6-1.23-3.77-1.6-5.87-1.5-.35,.01-.7,.05-1.04,.09-.38,.03-.76,.16-1.01,.03-1-.25-1.63-1.51-1.13-2.51,.25-.37,.75-.25,1.26-.28,.28,0,.56,.03,.79,.04h0Z"/>
        <path class="cls-54" d="M68.77,50.84c-.34,.78-.85,1.16-1.6,.66-.12,.25-.12,.63-.25,.88-.88,1-2.39,1-3.52,.25-.5-.37-.98-.75-1.41-1.16-.22-.21-.43-.42-.63-.64-.2-.22-.4-.46-.59-.71,.36-.22,.73-.38,1.12-.5,1.96-.61,4.26-.21,6.02,.64,.31,.17,.6,.37,.86,.58h0Z"/>
        <path class="cls-77" d="M66.82,56.39c-.54,.22-1.07,.48-1.58,.75-.26,.13-.51,.27-.77,.41-1.28,.59-2.85,.78-4.39,.59-.38-.05-.76-.12-1.14-.22-.49-.1-.94-.27-1.35-.5-.41-.23-.79-.51-1.13-.83-.72-.71-1.34-1.47-1.57-2.53-.08-.33-.1-.66-.05-.97,.05-.31,.18-.6,.4-.85,1.26-1.76,3.52-2.14,5.62-1.98,.45,.04,.9,.12,1.35,.24,1.76,.45,3.32,1.43,4.17,2.99,.15,.34,.26,.71,.37,1.07,.1,.36,.19,.72,.27,1.06,0,.31-.06,.57-.18,.76h0Z"/>
        <path class="cls-84" d="M54.59,53.21c1.65-.85,3.03,.79,4.08,1.8,.25,.23,.51,.43,.77,.59,.32,.21,.65,.39,.99,.57,1.34,.68,2.79,1.09,4.37,.82,.27-.02,.54-.05,.81-.07,.27-.02,.54-.03,.81-.03-.28,.01-.56,.06-.82,.12-.26,.07-.52,.15-.78,.25-1.65,.95-3.48,.95-5.22,.42-.43-.13-.86-.3-1.27-.5-.53-.22-.99-.55-1.42-.94-.21-.19-.42-.4-.61-.61-.56-.62-1.06-1.25-1.54-1.88-.11-.22-.17-.41-.17-.54h0Z"/>
        <path class="cls-29" d="M65.55,55.98c-.21,.16-.41,.33-.62,.49-.21,.16-.42,.33-.64,.49-1.26,.82-2.64,1.19-4.03,.69,.94-.44,.98-1.16,.75-1.96-.07-.26-.17-.54-.28-.81-.18-.25-.32-.54-.4-.85-.08-.3-.11-.61-.08-.91,.13-.63,.38-1.13,1.01-1.38,.34-.12,.65-.17,.95-.16,1.5,.07,2.58,1.7,3.25,3.09,.1,.26,.18,.53,.21,.8-.01,.18-.06,.36-.13,.51Z"/>
        <path class="cls-20" d="M61.25,57.23c1.02,.04,2.15,.29,2.96-.43,.29-.21,.57-.47,.82-.78,.25-.41,.31-.78,.23-1.11-.73-1.52-2.36-2.03-3.75-2.66,0,1-.5,1.88-.18,2.95,.01,.47,.03,.94,.01,1.43-.06,.37-.1,.61-.1,.61h0Z"/>
        <path class="cls-77" d="M54.59,53.22c1.14-2.48,4.41-2.86,6.59-1.43,.32,.19,.62,.41,.88,.65,.8,.73,1.33,1.69,1.33,2.82-.1,.28-.23,.58-.39,.86-.5,.86-1.33,1.59-2.37,1.4-.37-.06-.74-.16-1.08-.28-.77-.24-1.38-.66-1.93-1.14-.27-.25-.53-.5-.77-.76-.74-.71-1.36-1.59-2.26-2.12h0Z"/>
        <path class="cls-14" d="M62.85,54.1c-.42-.05-.82-.13-1.22-.24-.4-.11-.81-.23-1.25-.36-.5-.19-.78-.61-.81-1.03-.03-.42,.15-.83,.57-.96,.31-.07,.6-.05,.86,.03,.27,.09,.52,.24,.74,.42,.46,.38,.84,.92,1.17,1.43,.15,.31,.14,.56-.07,.71Z"/>
        <path class="cls-81" d="M58.56,54.41c.24,.23-.29,.68-.95,.25-.27-.2-.18-.39,.05-.47,.24-.08,.62-.06,.89,.22Z"/>
        <path class="cls-81" d="M59.02,53.49c-.26,.15-1.32-.19-.72-.71,.61-.37,1.04,.45,.72,.71Z"/>
        <path class="cls-50" d="M52.37,36.11c-.47,.19-.66,.37-1.04,.37,1.34,1.1,1.91,2.57,3.25,3.48-1.91,.18-3.25-.92-4.97-1.28,0,.18,.19,.37,.19,.55-.38-.18-.96-.18-1.41-.31-.43,.02-.83,.17-1.21,.39-1.5,.89-2.59,3.08-3.85,4.27-.21,.33-.41,.66-.61,.99-.39,.67-.76,1.35-1.14,1.98-.29-.64-.82-.86-1.41-.88-.6-.02-1.26,.17-1.82,.37-.39,.21-.77,.47-1.11,.75-.35,.28-.66,.6-.93,.9-.27,.31-.49,.61-.65,.89-.38,1.01-.76,2.01-1.11,3.02-.18,.5-.84,3.46-1.14,3.9-1.63,2.38-4.77,6.74-2.82,11.45,.25,.59-.53,2.03-.66,2.7-.08-.62-1.16-3.25-1.19-3.84-.02-.59-.48-1.98-.47-2.56,.05-4.64,2.72-8.11,3.94-12.64,.21-.56,.45-1.11,.71-1.65,.26-.54,.54-1.07,.86-1.59,.27-.3,.57-.57,.9-.83,.48-.39,.98-.75,1.5-1.09,1.29-.84,2.65-1.54,3.96-2.28,.44-.25,.87-.5,1.29-.77,.39-.21,.75-.46,1.1-.72,1.44-1.02,2.33-2.51,3.34-3.97,.34-.49,.68-.97,1.06-1.43,1.53-2.02,4.2-2.2,6.12-3.67,0,.92-1.34,1.28-1.28,2.36,0,.38,.16,.76,.6,1.12h0Z"/>
        <path class="cls-23" d="M27.89,47.21c.29,.64-.09,1.56,.67,1.92l-.57-.55c-.1,.64,0,1.24,.29,1.74,.28,.64,1.05,.82,1.43,1.19-.38,0-.76,0-.96,.18-.19,.74,.38,2.94,1.53,2.02,.96-.74,.19-.92,1.42-1.46,.3-.33,.49-.74,.49-1.11,0-1.47-1.53-2.38-2.92-2.53-.85-.46-1.39-1.42-1.39-1.42h0Z"/>
        <path class="cls-48" d="M85.1,37.07c-.22-.51-.46-1.02-.71-1.53-.63-.91-1.13-1.85-1.52-2.81-.19-.48-.36-.97-.5-1.46-.8-.97-.8-2.03-.61-3.1,.19-3.74,2.04-7.66,.74-11.58-3.16,3.56-2.79,8.73-4.4,12.92-.05,.42-.06,.85-.03,1.27,.05,.85,.26,1.7,.67,2.56,.27,.25,.61,.48,.98,.69,1.12,.62,2.59,1.1,3.58,1.95,.4,.24,.81,.49,1.22,.73,.36,.24,.58,.38,.58,.38Z"/>
        <path class="cls-60" d="M81.31,32.09c-.09-.55-.24-1.09-.4-1.63-2.32-4.42,.28-9.24,1.03-13.87-4.09,2.14-4.27,7.31-5.68,11.07-.07,.49-.1,.99-.07,1.49,0,1.65,2.48,2.38,4.24,2.56,.54,.23,.89,.38,.89,.38h0Z"/>
        <path class="cls-37" d="M68.77,28.34c-.76,.1-1.52-.14-.94-.21,.59-.07,2.26-.56,2.8-.85,.37-.16,1.19,.1,1.55-.11,.72-.4-1.4-1.47-.75-2,.48-.35,.96-.71,1.43-1.07,3.13-1.63,4.42-5.19,7.96-6.26-.19,0-.56,0-.74,.18-.74,3.56-.19,7.12-2.83,9.72-.34,.34-.7,.63-1.08,.9-.38,.27-.78,.5-1.2,.7-.48,.23-.19-.77-.72-.64-.55,.09-.92-.26-1.54-.25-.62,0-1.54-.12-2.12-.35-.54-.06-1.24,.35-1.83,.23h0Z"/>
        <path class="cls-38" d="M84.48,36.47c-.35-.27-.7-.55-1.05-.82-.95-.64-1.86-1.35-2.77-2.08-.46-.36-.91-.72-1.37-1.08-1.77-.98-3.77-1.8-5.49-2.71,.57-.14,1.8-.63,2.34-.59,.55,.04,1.08,.16,1.6,.32,1.03,.07,1.96,.96,2.94,1.34,.31,.27,.6,.57,.86,.92,.35,.41,.67,.84,.97,1.28,.61,.88,1.43,1.67,1.88,2.47,.24,.39,.71,.77,.09,.94h0Z"/>
        <path class="cls-28" d="M40.14,33.81c.1,.11,.29,.29,.48,.48,.57-.92,0-1.47-.38-2.2v.55c-.22-.55-.49-1.08-.81-1.57-1.4-1.75-3.22-3.44-5.45-4.17-.45-.14-.91-.25-1.38-.31-.57-.18-.96-.74-.76-1.28-3.21,3.21-2.68,7.76-1.65,12.05,.15,.61,.3,1.22,.46,1.82,.15,1.63,.89,3.15,1.3,4.69,.11,.38,.19,.77,.24,1.16,.02,.81,.02,1.72-.55,2.27-.38,.37-.57,.18-.96,0,.57,.74,1.34,1.1,2.3,.92-.19-.18-.57-.18-.76-.37,.38-.18,.76-.18,1.15-.18-.38-.18-.57-.55-.76-.92,.57,.37,1.34,.92,1.92,.37,.19-.37-.19-.92-.57-1.1,.37,.19,.76,.19,.95,.56,.48-2.02,.86-4.22,.79-6.35-.02-.53-.06-1.06-.14-1.58-.07-1.6-.45-3.07-1.22-4.54,.57-.18,1.34-.18,1.83-.25,.63-.06,1.26-.1,1.86-.08,.43,0,.86,.01,1.3,.03h.83Z"/>
        <path class="cls-21" d="M38.94,33.3c.53,.24,1.3,.24,1.49,.98-.14-.5-.36-.94-.63-1.32-.27-.38-.61-.7-.98-.97-.4-.23-.81-.41-1.23-.56-.42-.15-.86-.26-1.3-.35-2.15-1.01-5.4,1-6.36-1.56,.57,2.57,2.87,4.77,2.48,7.52-.76-.74-.57-2.2-1.72-2.75,.57,1.28,.76,2.66,.91,4.06,.05,.47,.1,.94,.15,1.41,.28,1.49,.09,3.14,1.42,4.1,.39,.36,.89,.66,1.53,.87-.14-1.45,.03-2.94,.2-4.43,.05-.49,.11-.99,.14-1.48-.14-1.97,.43-3.99-.34-6.01,.57,0,1.34,0,1.82,.05,.62,.05,1.24,.14,1.83,.32,.37,.07,.61,.12,.61,.12h0Z"/>
        <path class="cls-80" d="M40.67,36.44c-.81-.69-1.38-1.6-2.53-1.6,0,.18,.19,.18,.19,.37-.19-.74-.96-.92-1.52-1.28,0,.55-.2,1.28,.37,1.65-.57,.55-1.33,0-1.69-.56,.27,.46,.5,.88,.7,1.3,.21,.42,.37,.84,.52,1.3,.19,.44,.37,.89,.56,1.33,.57,1.31,1.24,2.5,2.58,3.05-1.91,1.1-4.4,1.65-5.16,3.85-.72-1.17-1.03-2.44-1.2-3.75-.06-.44-.1-.87-.13-1.32,.19-2.82-.58-5.2-1.15-7.95-.19-1.65,1.72-2.75,3.08-2.01,.53,.15,1.07,.38,1.58,.66,.51,.28,.99,.59,1.41,.89,.39,.3,.75,.65,1.06,1.03,.61,.76,1,1.68,1.05,2.7,0,0,.23,.04,.28,.35h0Z"/>
        <path class="cls-23" d="M43.76,41.56c-.65-.49-.65-1.4-1.04-2.14-.19,.18-.38,.37-.57,.55,.29-1.19,.34-2.43,.19-3.67-.05-.41-.12-.83-.2-1.23-.37-.78-.18-1.7-.56-2.43,.29,.55,.62,1.01,.98,1.42,.36,.41,.74,.78,1.12,1.15-.35-.49-.67-.99-.96-1.49-1.45-2.54-2.2-5.32-2.67-8.22,1.53,1.84,1.72,4.22,2.68,6.24,.38,.55,.57,1.1,1.19,1.51,1.49,1.24,2.25,3.26,1.3,4.91-.19-.18-.19-.55-.38-.74-.19,.37-.19,.74-.38,1.1,0-.55-.19-1.1-.57-1.47,.38,1.28,.19,2.38,.17,3.62-.03,.43-.11,.77-.28,.9h0Z"/>
        <path class="cls-47" d="M40.75,29.6c.83-4.3-2.99-6.87-5.67-9.61-.1,.61-.04,1.16,.12,1.66,.16,.5,.43,.95,.75,1.38,.85,.99,1.61,1.55,2.42,2.44,.42,.41,.82,.84,1.16,1.31,.34,.47,.61,.97,.78,1.53,.17,.4,.31,.83,.44,1.3Z"/>
        <path class="cls-88" d="M95.34,71.52c-.03,.09,.09,.37,.28,.34,.2-.02,.11-.31-.02-.34-.12-.03-.25-.05-.27,0h0Z"/>
        <path class="cls-36" d="M35.62,103.56c-1.56-.31-3.3-1.89-5-3.77-.34-.37-.68-.76-1.01-1.15-1.42-1.65-2.75-4.59-4.47-6.05,2.1-.37,.76-2.02,1.34-3.3,.19,.18,.57,.37,.96,.37-.57-1.84-1.72-3.48-1.91-5.32,1.72,3.85,4.97,6.42,8.12,9.08,.64,.8,.86,1.25,.87,1.52,0,.27-.19,.36-.4,.43-.43,.14-.9,.22,.21,1.53,0,0,.13,.3,.33,.74,.57,1.32,1.64,3.85,1.1,3.06-1.61-.3,.05,2.16-.12,2.86h0Z"/>
        <path class="cls-31" d="M76.66,119.12c-.73,.07-1.47,.14-2.21,.2,.19-.16,.33-.38,.37-.67,.02-.12,.02-.25,0-.4,.58,.03,1.13,.02,1.68,0,.55-.02,1.09-.07,1.62-.12,.03,0,.06-.01,.09-.02,1.31-.31,2.63-.28,3.96-.2,.3,.02,.61,.04,.9,.06,.08,0,.15,0,.23,.01h.08c.38,.02,.75,.04,1.13,.05-.37,.07-.74,.13-1.1,.19-.05,0-.1,.02-.15,.02h-.03c-.35,.06-.71,.11-1.07,.17-1.22,.19-2.46,.35-3.73,.5-.54,.06-1.1,.12-1.65,.18-.03,0-.06,0-.1,0h-.01s0,.01,0,0h0Z"/>
        <path class="cls-75" d="M42.65,117.7c-2.3-.35-4.01-1.74-5.93-2.62,1.23,1.54,2.95,2.63,4.57,3.81-6.36-.74-12.08-1.95-17.01-3.85-1.31-.5-2.57-1.06-3.76-1.66-.25-.12-.49-.25-.74-.38,0,.04,0,.08,0,.12,0-.04,0-.09-.02-.14-.16-.09-.32-.18-.48-.26-.53-.29-1.05-.6-1.55-.92,.04-.57,.1-1.1,.16-1.61,.17-1.38,.43-2.54,.78-3.53,.15-.42,.32-.8,.5-1.14,.02-.04,.05-.08,.07-.12,1.4-2.22,4.4-3.11,7-3.18,.48-.03,.98-.03,1.51-.02,0,.02,.02,.03,.03,.05,.26,.46,.54,.92,.85,1.38,3.49,5.22,9.41,9.74,14,14.05h0Z"/>
        <path class="cls-26" d="M19.76,112.99c-.16-.09-.32-.18-.48-.26-.53-.29-1.05-.6-1.55-.92-.3-.19-.61-.39-.9-.6-1.6-1.09-3.06-2.31-4.37-3.67-.12-.12-.24-.22-.35-.35,.08-1.29,.18-2.49,.28-3.6,.04-.46,.09-.9,.13-1.32,.18-2.71,.87-9.68,2.4-11.88,.02,.03,.04,.07,.06,.11,.24,.5,.6,1.57,.96,2.77,.21,.7,.42,1.43,.6,2.13,.33,1.26,.56,2.38,.56,2.87,0,.22,0,.43-.01,.65-.1,2.35-.69,4.7,.02,7.06,.19,.18,.38,.74,.77,.91-.38,0-.77-.18-.9,.38-.03,.31,.04,.95,.29,1.65,.14,.42,.35,.87,.63,1.27,.18,.27,.4,.53,.65,.75,.33,.3,.57,.58,.74,.85,.16,.24,.27,.45,.34,.63-.02,.12,.09,.37,.13,.56h0Z"/>
        <path class="cls-26" d="M20.52,113.38c-.25-.12-.49-.25-.74-.38,.03-.32,.18-.65,.18-.98,.17,.41,.34,.9,.55,1.36h0Z"/>
        <path class="cls-5" d="M99.43,90.25c-1.83,2.46-8.42,6.76-16.61,9.45-7.17,2.35-9.48,1.61-2.34-.18,1.78-.45-1.55-.18-5.45,.8-4.05,1.01,1.64-1.65,4.84-2.23,4.61-.84,2.26-.99,5.09-2.47,2.83-1.48,3.32-1.01,6.15-3.14,2.83-2.12,5.99-3.64,3.68-2.1-2.31,1.54-6.26,3.1-3.13,.55,3.12-2.56,2.6-6.38,3.05-7.8,.44-1.42,2.89-1.09,3.22,1.16,.33,2.25,1.5,5.97,1.5,5.97h0Z"/>
        <path class="cls-33" d="M87.9,37.48c-9.1-1.78-3.04-18.33-5.28-22.12-7.04-1.55-6.17,7.07-9.08,9.44l14.36,12.69Z"/>
        <path class="cls-72" d="M84.38,38.45c.3-4.17-8-12.34-12.19-7.53l12.19,7.53Z"/>
        <path class="cls-48" d="M84.09,34.9c-6.87-10.45,.47-12.65-2-19.74-3.25,1.3-4.02,13.89-4.66,16.55l6.66,3.19Z"/>
        <path class="cls-60" d="M81.12,31.23c-1.43-2.31-3.13-13.35,1.5-15.87-4.76-4.11-6.68,12.85-7.24,13.17l5.73,2.7Z"/>
        <path class="cls-37" d="M71.48,28.56c-2.15-.44-2.25,.27-3.42-.62,3.78-.83,7.66-12.62,12.38-12.73-4.21,5.12,.87,14.8-8.96,13.36h0Z"/>
        <path class="cls-38" d="M84.1,35.33c-2.17-.25-6.13-5.98-9.08-6.43,2.18-4.04,9.13,5.17,9.08,6.43Z"/>
        <path class="cls-74" d="M87.5,48.61c-.35-.65-2.4-1.82-2.22-.67,.02,.16-.06,.33-.22,.38h0c-.3,.12-.29,.54,0,.66,1.2,.49,1.93,1.82,2.46-.12,.02-.09,.01-.18-.02-.25h0Z"/>
        <path class="cls-66" d="M87.18,52.37c-.61-.87-.95-4.1,.51-3.71,.05,.01,.1,.04,.14,.08,.5,.46,1.42,2.42-.14,3.7-.15,.13-.39,.1-.51-.07Z"/>
        <path class="cls-86" d="M91.03,63.55c3.05-.61,4.48-.44,2.39-1.07-2.09-.63-3.22-.43-6.46,.54-3.23,.97-3.08,1.8-2.47,1.75,.61-.05,2.39-.39,6.54-1.22h0Z"/>
        <path class="cls-32" d="M97.34,76.49s1.1,4.3,3.86,7.59c0,0-3.02-5.56-3.86-7.59Z"/>
        <path class="cls-32" d="M97.47,74.7s2.94,3,4.12,3.86c1.18,.86-4.12-3.86-4.12-3.86Z"/>
        <path class="cls-32" d="M98.05,62.48s5.52-3.91,7.21-5.56c1.69-1.66-7.21,5.56-7.21,5.56Z"/>
        <path class="cls-32" d="M97.9,73.62s4.26,4.2,5.83,5.26c0,0-5.06-5.21-5.83-5.26Z"/>
        <path class="cls-32" d="M99.19,71.54s8.44,6.76,10.39,7.84c0,0-9.13-7.31-10.39-7.84Z"/>
        <path class="cls-32" d="M112.66,78.18l-14.3-7.71s6.49,2.55,14.3,7.71Z"/>
        <path class="cls-32" d="M113.34,75.13l-14.83-6.03s6.71,1.86,14.83,6.03Z"/>
        <path class="cls-32" d="M115.51,63.84l-15.75,2.85s6.66-2.02,15.75-2.85Z"/>
        <path class="cls-32" d="M114.16,71.84l-14.98-3.84s8.62,1.37,14.98,3.84Z"/>
        <path class="cls-88" d="M84.26,73.04c.24-.05,.4-.45,.16-.63-.24-.18-.74-.15-.69,.22,.06,.37,.13,.5,.53,.42Z"/>
        <path class="cls-83" d="M81.52,72.48c.24,.04,.55-.22,.6-.53,.05-.31-.31-.25-.6-.2-.28,.05-.2,.7,0,.73Z"/>
        <path class="cls-83" d="M79.86,71.16c.53,.03,.8-.03,.56-.37-.24-.34-.63-.53-.82-.25-.19,.28-.03,.61,.25,.63h0Z"/>
        <path class="cls-83" d="M78.36,70.68c.28-.11,.44-.6,.1-.82-.34-.22-.3-.1-.47,.25-.17,.35,.27,.61,.37,.56h0Z"/>
        <path class="cls-83" d="M76.46,70.22c.25,0,.66-.48,.11-.65-.55-.17-.39,.66-.11,.65Z"/>
        <path class="cls-83" d="M82.81,74.39c.32-.1,.64-.52,.3-.74-.35-.22-.39-.25-.55,0-.15,.25,.11,.78,.25,.74Z"/>
        <path class="cls-83" d="M81.16,74.19c.43-.12,.25-.8,0-.8s-.31-.42-.65-.26c-.34,.16-.05,1.27,.65,1.07h0Z"/>
        <path class="cls-83" d="M79.22,73.82c.41-.04,.44-.43,.1-.74-.34-.31-.53-.45-.6-.16-.06,.29,.08,.95,.5,.9Z"/>
        <path class="cls-83" d="M77.32,73.15c.51,.04,.52-.63,.08-.61-.44,.02-.68,.06-.56,.31,.12,.25,.09,.26,.48,.3h0Z"/>
        <path class="cls-83" d="M82.03,76.34c.26-.22,.72-.61,.19-.77-.53-.16-.79-.46-.87-.19-.09,.27,.56,1.06,.69,.96Z"/>
        <path class="cls-83" d="M80.51,76.6c.34,0,.21-.83-.14-.56-.36,.27-.21,.56,.14,.56Z"/>
        <path class="cls-83" d="M81.33,77.57c.37,.15,.25-.58,0-.55-.24,.03-.32,.42,0,.55Z"/>
        <path class="cls-88" d="M86.22,72.85c.25,.24,.16-.42,0-.37-.16,.05-.19,.19,0,.37Z"/>
        <path class="cls-88" d="M85.39,73c.2,.01,.11-.32-.1-.31-.21,0-.16,.29,.1,.31Z"/>
        <path class="cls-88" d="M84.71,72.02c.16-.23,.12-.51-.16-.43-.28,.08,.16,.43,.16,.43Z"/>
        <path class="cls-88" d="M83.76,71.41c.15,.03-.01-.35-.17-.25-.16,.1,.03,.21,.17,.25Z"/>
        <path class="cls-88" d="M83.26,70.21c.14,.1,.29-.4,.06-.34-.24,.06-.21,.24-.06,.34Z"/>
        <path class="cls-88" d="M86.95,74.49c.25,.05,.11-.4-.12-.27-.24,.13-.03,.24,.12,.27Z"/>
        <path class="cls-88" d="M85.97,75.14c.15,.25,.17-.3,0-.26-.17,.03-.05,.19,0,.26Z"/>
        <path class="cls-88" d="M84.62,74.49c.28,.07,.26-.52,0-.46-.26,.06-.24,.4,0,.46Z"/>
        <path class="cls-88" d="M84.03,75.81c.26-.02,.02-.35-.21-.27-.23,.08-.25,.31,.21,.27Z"/>
        <path class="cls-88" d="M92.28,74.26c.25,0,.31-.47-.05-.33-.36,.14-.2,.34,.05,.33Z"/>
        <path class="cls-88" d="M94.4,73.65c.37-.05,.14-.59-.14-.49-.28,.09,.06,.5,.14,.49Z"/>
        <path class="cls-88" d="M95.13,73.16c.01-.25,.12-.24-.1-.25-.22-.01,.1,.25,.1,.25Z"/>
      </g>
    </g>
  </g>
</svg>